<?xml version="1.0" encoding="UTF-8" standalone="no"?>
<!-- Created with Inkscape (http://www.inkscape.org/) -->

<svg
   width="300"
   height="170"
   viewBox="0 0 79.374999 44.979166"
   version="1.1"
   id="svg5"
   xml:space="preserve"
   inkscape:version="1.2.1 (9c6d41e410, 2022-07-14)"
   sodipodi:docname="back.svg"
   xmlns:inkscape="http://www.inkscape.org/namespaces/inkscape"
   xmlns:sodipodi="http://sodipodi.sourceforge.net/DTD/sodipodi-0.dtd"
   xmlns="http://www.w3.org/2000/svg"
   xmlns:svg="http://www.w3.org/2000/svg"><sodipodi:namedview
     id="namedview7"
     pagecolor="#ffffff"
     bordercolor="#000000"
     borderopacity="0.25"
     inkscape:showpageshadow="2"
     inkscape:pageopacity="0.0"
     inkscape:pagecheckerboard="0"
     inkscape:deskcolor="#d1d1d1"
     inkscape:document-units="mm"
     showgrid="false"
     inkscape:zoom="1.1893044"
     inkscape:cx="229.12553"
     inkscape:cy="160.59808"
     inkscape:window-width="1366"
     inkscape:window-height="705"
     inkscape:window-x="-8"
     inkscape:window-y="-8"
     inkscape:window-maximized="1"
     inkscape:current-layer="layer1" /><defs
     id="defs2" /><g
     inkscape:label="Capa 1"
     inkscape:groupmode="layer"
     id="layer1"><g
       id="g429"
       transform="matrix(-7.4373156,0,0,-6.9535484,896.74526,840.61159)"><path
         style="fill:#000000;stroke-width:0.0918139"
         d="m 116.27188,120.7317 c -0.0807,-0.0957 -0.14666,-0.28516 -0.14666,-0.42107 0,-0.20261 0.19412,-0.4111 1.078,-1.15779 l 1.078,-0.91069 h -4.07728 c -3.83745,0 -4.0859,-0.0102 -4.22394,-0.17396 -0.19369,-0.22974 -0.18638,-0.61409 0.0154,-0.81011 0.14584,-0.14167 0.56868,-0.15743 4.22394,-0.15743 h 4.06189 l -1.078,-0.91069 c -0.91488,-0.77287 -1.07801,-0.95058 -1.07801,-1.17432 0,-0.30431 0.24117,-0.5785 0.50883,-0.5785 0.22474,0 3.87776,3.04681 3.87776,3.23426 0,0.19872 -3.65396,3.23426 -3.89316,3.23426 -0.11005,0 -0.2661,-0.0783 -0.34677,-0.17396 z"
         id="path426"
         sodipodi:nodetypes="ssscsssscssssss" /></g></g></svg>
