<?xml version="1.0" encoding="UTF-8" standalone="no"?>
<!-- Created with Inkscape (http://www.inkscape.org/) -->

<svg
   width="400"
   height="400"
   viewBox="0 0 105.83333 105.83333"
   version="1.1"
   id="svg5"
   xml:space="preserve"
   inkscape:version="1.2.1 (9c6d41e410, 2022-07-14)"
   sodipodi:docname="burguer.svg"
   xmlns:inkscape="http://www.inkscape.org/namespaces/inkscape"
   xmlns:sodipodi="http://sodipodi.sourceforge.net/DTD/sodipodi-0.dtd"
   xmlns="http://www.w3.org/2000/svg"
   xmlns:svg="http://www.w3.org/2000/svg"><sodipodi:namedview
     id="namedview7"
     pagecolor="#ffffff"
     bordercolor="#000000"
     borderopacity="0.25"
     inkscape:showpageshadow="2"
     inkscape:pageopacity="0.0"
     inkscape:pagecheckerboard="0"
     inkscape:deskcolor="#d1d1d1"
     inkscape:document-units="mm"
     showgrid="false"
     inkscape:zoom="0.84096521"
     inkscape:cx="278.84626"
     inkscape:cy="202.14867"
     inkscape:window-width="1366"
     inkscape:window-height="705"
     inkscape:window-x="-8"
     inkscape:window-y="-8"
     inkscape:window-maximized="1"
     inkscape:current-layer="layer1" /><defs
     id="defs2" /><g
     inkscape:label="Capa 1"
     inkscape:groupmode="layer"
     id="layer1"><path
       style="fill:#000000;stroke-width:0.163019"
       d="m 49.188653,106.14303 c -0.313966,-0.036 -1.378184,-0.1464 -2.36493,-0.24538 C 34.736242,104.68516 22.997253,98.910646 14.401255,89.948776 6.2305585,81.430305 1.3781005,71.069125 -0.10006948,58.984916 c -0.27184198,-2.222344 -0.27184198,-9.183426 0,-11.40577 C 0.70921252,40.963142 2.2781645,35.599464 5.0712585,29.900198 11.258943,17.274336 22.570611,7.4109249 35.896116,3.0219009 c 4.965305,-1.635416 9.654781,-2.45538798 15.086622,-2.63795198 7.659628,-0.257438 15.381265,1.18720598 22.499755,4.20948198 9.67838,4.109127 18.21622,11.3819071 23.91922,20.3750711 4.285517,6.75791 6.760737,13.77524 7.917977,22.4477 0.2752,2.062344 0.28091,9.359098 0.009,11.568714 -1.48856,12.099039 -6.329445,22.442899 -14.479887,30.94024 -8.46825,8.82869 -19.35437,14.289824 -31.722847,15.914094 -1.765362,0.23184 -8.712015,0.44419 -9.937351,0.30378 z M 24.64545,75.645495 c 3.967508,-3.95352 4.807236,-4.85092 4.400524,-4.70276 -0.22164,0.0807 -0.13014,-0.0823 0.285422,-0.50862 0.33639,-0.3451 0.611622,-0.67936 0.611622,-0.74279 0,-0.0634 -0.679472,-0.11534 -1.509936,-0.11534 h -1.50994 l -3.911815,3.91055 c -2.643856,2.64299 -3.808988,3.91055 -3.594572,3.91055 0.260968,0 0.20423,0.11562 -0.319796,0.65175 l -0.637048,0.65176 h 1.559804 1.559798 z m 6.07101,-0.73194 c 2.086326,-2.08287 3.793316,-3.82895 3.793316,-3.88018 0,-0.0512 -0.642202,-0.10834 -1.42711,-0.12692 l -1.427116,-0.0338 -3.91309,3.91397 -3.913092,3.91397 h 1.54689 1.546884 z m 5.382254,0 c 2.086327,-2.08287 3.793317,-3.84262 3.793317,-3.91055 0,-0.0679 -0.642776,-0.1235 -1.428386,-0.1235 h -1.428387 l -3.91182,3.91055 -3.911816,3.91055 h 1.546884 1.54689 z m 48.083109,1.90894 c 2.13026,-1.31581 2.48169,-4.16067 0.73612,-5.95879 -1.3318,-1.37189 0.0914,-1.28771 -21.77446,-1.28771 H 43.885399 l -3.913088,3.91241 -3.913099,3.91242 23.662126,-0.0426 23.662125,-0.0426 z M 25.457806,54.585546 29.369622,50.674996 H 27.820186 26.27075 l -3.911823,3.91055 -3.911814,3.91055 h 1.549436 1.549436 z m 5.382254,0 3.911816,-3.91055 h -1.55393 -1.55393 l -3.827048,3.83529 c -2.104876,2.109406 -3.85763,3.869154 -3.89501,3.91055 -0.03736,0.04138 0.623746,0.07526 1.469162,0.07526 h 1.53712 z m 5.258654,0.1235 c 2.086327,-2.082876 3.793317,-3.842624 3.793317,-3.91055 0,-0.06792 -0.674386,-0.1235 -1.49864,-0.1235 h -1.498649 l -3.80196,3.788344 c -2.09108,2.08359 -3.802002,3.843338 -3.802058,3.91055 -5.6e-5,0.06722 0.67822,0.1222 1.507284,0.1222 h 1.507388 z m 47.719109,2.092902 c 0.74012,-0.36721 1.48211,-1.077366 1.86567,-1.785612 0.37716,-0.696418 0.38135,-2.764692 0.007,-3.455086 -0.36465,-0.672516 -1.19129,-1.45938 -1.90739,-1.81561 -0.55489,-0.27603 -1.70771,-0.295138 -20.24179,-0.33555 l -19.653382,-0.04286 -3.914366,3.914542 -3.914369,3.914546 23.56775,-0.04262 c 22.768637,-0.04114 23.588877,-0.05308 24.190867,-0.351764 z M 25.457806,34.381036 29.369622,30.47048 H 27.820186 26.27075 l -3.911823,3.910556 -3.911814,3.910548 h 1.549436 1.549436 z m 5.382254,0 3.911816,-3.910556 H 33.123438 31.495 l -3.793312,3.78705 c -2.086326,2.08287 -3.793318,3.842616 -3.793318,3.910548 0,0.06792 0.679468,0.1235 1.509936,0.1235 h 1.509934 z m 5.245708,0.12964 c 2.093447,-2.079496 3.806263,-3.839244 3.806263,-3.91055 0,-0.0713 -0.678326,-0.12966 -1.507388,-0.12966 h -1.507389 l -3.793312,3.78705 c -2.086326,2.08287 -3.793324,3.842616 -3.793324,3.910548 0,0.06792 0.672502,0.1235 1.494444,0.1235 h 1.494444 z m 47.201665,2.217048 c 1.15267,-0.338734 2.27968,-1.453844 2.59059,-2.563198 0.47695,-1.70184 -0.21595,-3.508644 -1.69618,-4.422966 l -0.79835,-0.49313 -19.74777,-0.04286 -19.747776,-0.04286 -3.91309,3.912668 -3.913093,3.912662 h 23.169902 c 20.747017,0 23.262537,-0.02722 24.055767,-0.260338 z"
       id="path302" /></g></svg>
