<?xml version="1.0" encoding="UTF-8" standalone="no"?>
<!-- Created with Inkscape (http://www.inkscape.org/) -->

<svg
   width="400"
   height="400"
   viewBox="0 0 105.83333 105.83333"
   version="1.1"
   id="svg5"
   inkscape:version="1.2.1 (9c6d41e410, 2022-07-14)"
   sodipodi:docname="cerrar.svg"
   xmlns:inkscape="http://www.inkscape.org/namespaces/inkscape"
   xmlns:sodipodi="http://sodipodi.sourceforge.net/DTD/sodipodi-0.dtd"
   xmlns="http://www.w3.org/2000/svg"
   xmlns:svg="http://www.w3.org/2000/svg">
  <sodipodi:namedview
     id="namedview7"
     pagecolor="#ffffff"
     bordercolor="#000000"
     borderopacity="0.25"
     inkscape:showpageshadow="2"
     inkscape:pageopacity="0.0"
     inkscape:pagecheckerboard="0"
     inkscape:deskcolor="#d1d1d1"
     inkscape:document-units="px"
     showgrid="false"
     inkscape:zoom="0.84096521"
     inkscape:cx="98.101562"
     inkscape:cy="193.8249"
     inkscape:window-width="1366"
     inkscape:window-height="705"
     inkscape:window-x="-8"
     inkscape:window-y="-8"
     inkscape:window-maximized="1"
     inkscape:current-layer="layer1" />
  <defs
     id="defs2" />
  <g
     inkscape:label="Capa 1"
     inkscape:groupmode="layer"
     id="layer1">
    <path
       id="path400"
       style="fill:#333333;fill-opacity:0.996078;stroke-width:0.106893;stroke-linejoin:round;stroke-opacity:0.394958"
       d="M 54.20506,0.02592691 A 52.916491,52.916549 0 0 0 42.401401,1.0676889 52.916491,52.916549 0 0 0 1.0660623,63.451225 52.916491,52.916549 0 0 0 63.449529,104.78674 52.916491,52.916549 0 0 0 104.78527,42.403205 l -45.939465,9.32256 -0.497755,0.47475 31.81523,30.36156 h -6.86112 l -28.389701,-27.08375 -30.049554,28.6671 h -6.861124 l 33.474684,-31.94491 -30.139286,-28.75278 6.64665,-0.22385 26.928228,25.69802 25.269173,-24.11467 6.64666,0.22384 -27.982085,26.69469 45.939055,-9.32297 A 52.916491,52.916549 0 0 0 54.20506,0.02592691 Z" />
  </g>
</svg>
