<?xml version="1.0" encoding="UTF-8" standalone="no"?>
<!-- Created with Inkscape (http://www.inkscape.org/) -->

<svg
   width="500"
   height="500"
   viewBox="0 0 132.29166 132.29168"
   version="1.1"
   id="svg5825"
   inkscape:version="1.2.1 (9c6d41e410, 2022-07-14)"
   sodipodi:docname="house.svg"
   xmlns:inkscape="http://www.inkscape.org/namespaces/inkscape"
   xmlns:sodipodi="http://sodipodi.sourceforge.net/DTD/sodipodi-0.dtd"
   xmlns="http://www.w3.org/2000/svg"
   xmlns:svg="http://www.w3.org/2000/svg">
  <sodipodi:namedview
     id="namedview5827"
     pagecolor="#ffffff"
     bordercolor="#000000"
     borderopacity="0.25"
     inkscape:showpageshadow="2"
     inkscape:pageopacity="0.0"
     inkscape:pagecheckerboard="0"
     inkscape:deskcolor="#d1d1d1"
     inkscape:document-units="mm"
     showgrid="false"
     inkscape:zoom="0.5946522"
     inkscape:cx="10.930759"
     inkscape:cy="269.06484"
     inkscape:window-width="1366"
     inkscape:window-height="705"
     inkscape:window-x="-8"
     inkscape:window-y="-8"
     inkscape:window-maximized="1"
     inkscape:current-layer="layer1" />
  <defs
     id="defs5822" />
  <g
     inkscape:label="Capa 1"
     inkscape:groupmode="layer"
     id="layer1">
    <g
       id="g6186"
       transform="matrix(0.79065453,0,0,0.7901332,-233.754,-331.62652)"
       style="fill:#ececec">
      <path
         style="fill:#ececec;fill-opacity:1;stroke-width:0.264583"
         d="m 374.22178,586.94477 c 0.191,-0.0764 0.4192,-0.067 0.50712,0.0209 0.0879,0.0879 -0.0684,0.15045 -0.34726,0.13896 -0.30823,-0.0127 -0.37092,-0.0754 -0.15986,-0.15985 z m 10.31875,0 c 0.191,-0.0764 0.4192,-0.067 0.50712,0.0209 0.0879,0.0879 -0.0683,0.15045 -0.34726,0.13896 -0.30823,-0.0127 -0.37092,-0.0754 -0.15986,-0.15985 z m 57.4642,-27.7004 c 0,-0.0549 0.20836,-0.2633 0.46302,-0.46302 0.41964,-0.32911 0.429,-0.31975 0.0999,0.0999 -0.34564,0.44073 -0.56291,0.58089 -0.56291,0.36313 z m -126.24001,-1.68604 c -0.3291,-0.41965 -0.31975,-0.42901 0.0999,-0.0999 0.25466,0.19972 0.46302,0.40808 0.46302,0.46302 0,0.21776 -0.21727,0.0776 -0.56292,-0.36312 z M 437.20848,442.46457 c -0.32911,-0.41964 -0.31975,-0.429 0.0999,-0.0999 0.25466,0.19972 0.46302,0.40808 0.46302,0.46302 0,0.21776 -0.21727,0.0776 -0.56291,-0.36313 z M 373.16345,419.7281 c 0.19099,-0.0764 0.4192,-0.067 0.50712,0.0209 0.0879,0.0879 -0.0684,0.15045 -0.34727,0.13897 -0.30822,-0.0127 -0.37092,-0.0754 -0.15985,-0.15986 z m 12.96458,0 c 0.191,-0.0764 0.4192,-0.067 0.50712,0.0209 0.0879,0.0879 -0.0684,0.15045 -0.34726,0.13897 -0.30823,-0.0127 -0.37092,-0.0754 -0.15986,-0.15986 z"
         id="path6202" />
      <path
         style="fill:#ececec;fill-opacity:1;stroke-width:0.264583"
         d="m 374.999,586.95028 c 0.1819,-0.0734 0.47955,-0.0734 0.66145,0 0.18191,0.0734 0.0331,0.13346 -0.33073,0.13346 -0.3638,0 -0.51263,-0.0601 -0.33072,-0.13346 z m -56.85303,-26.74612 c -0.3291,-0.41965 -0.31975,-0.429 0.0999,-0.0999 0.25466,0.19972 0.46302,0.40808 0.46302,0.46302 0,0.21777 -0.21727,0.0776 -0.56292,-0.36312 z m 73.97767,-22.15886 c 2e-5,-10.04093 0.033,-14.11011 0.0732,-9.04262 0.0402,5.0675 0.0402,13.28282 -5e-5,18.25625 -0.0403,4.97345 -0.0732,0.82731 -0.0731,-9.21363 z m 31.75179,-9.525 c 2e-5,-13.67895 0.0322,-19.23611 0.0714,-12.34923 0.0393,6.88688 0.0393,18.07876 -2e-5,24.87084 -0.0393,6.79207 -0.0714,1.15735 -0.0714,-12.52161 z M 314.47556,503.26821 c 0,-0.13693 0.13746,-0.33392 0.30546,-0.43776 0.18803,-0.1162 0.23369,-0.0727 0.11878,0.11328 -0.13824,0.22367 2.23731,0.32102 9.15339,0.37511 l 9.34008,0.073 -9.45886,0.0626 c -5.7784,0.0383 -9.45885,-0.0342 -9.45885,-0.18632 z m 114.25104,0.0508 c 2.66521,-0.0432 6.95146,-0.0431 9.525,1.5e-4 2.57354,0.0433 0.39292,0.0786 -4.84583,0.0785 -5.23875,-9e-5 -7.34438,-0.0355 -4.67917,-0.0787 z m 10.10313,-59.20084 c -0.64268,-0.65484 -1.10898,-1.19063 -1.03622,-1.19063 0.0728,0 0.65812,0.53579 1.3008,1.19063 0.64268,0.65484 1.10898,1.19062 1.03622,1.19062 -0.0728,0 -0.65812,-0.53578 -1.3008,-1.19062 z M 385.33428,419.7281 c 0.191,-0.0764 0.4192,-0.067 0.50712,0.0209 0.0879,0.0879 -0.0684,0.15045 -0.34726,0.13897 -0.30823,-0.0127 -0.37092,-0.0754 -0.15986,-0.15986 z"
         id="path6200" />
      <path
         style="fill:#ececec;fill-opacity:1;stroke-width:0.264583"
         d="m 376.07387,586.94477 c 0.19099,-0.0764 0.4192,-0.067 0.50711,0.0209 0.0879,0.0879 -0.0684,0.15045 -0.34726,0.13896 -0.30823,-0.0127 -0.37092,-0.0754 -0.15985,-0.15985 z m 7.14375,0 c 0.19099,-0.0764 0.4192,-0.067 0.50711,0.0209 0.0879,0.0879 -0.0684,0.15045 -0.34726,0.13896 -0.30823,-0.0127 -0.37092,-0.0754 -0.15985,-0.15985 z m 52.17252,-21.08582 c 0,-0.0549 0.20836,-0.2633 0.46302,-0.46302 0.41965,-0.32911 0.42901,-0.31975 0.0999,0.0999 -0.34564,0.44072 -0.56292,0.58088 -0.56292,0.36312 z m -43.34008,-9.02823 c 0.005,-0.43656 0.0647,-0.58312 0.13177,-0.32569 0.0671,0.25743 0.0627,0.61462 -0.01,0.79375 -0.0725,0.17913 -0.12736,-0.0315 -0.12197,-0.46806 z"
         id="path6198" />
      <path
         style="fill:#ececec;fill-opacity:1;stroke-width:0.264583"
         d="m 376.86762,586.94477 c 0.19099,-0.0764 0.4192,-0.067 0.50711,0.0209 0.0879,0.0879 -0.0684,0.15045 -0.34726,0.13896 -0.30823,-0.0127 -0.37092,-0.0754 -0.15985,-0.15985 z m 5.55625,0 c 0.19099,-0.0764 0.4192,-0.067 0.50711,0.0209 0.0879,0.0879 -0.0683,0.15045 -0.34726,0.13896 -0.30823,-0.0127 -0.37092,-0.0754 -0.15985,-0.15985 z m -60.69741,-23.16874 -0.50403,-0.59531 0.59531,0.50403 c 0.55945,0.47366 0.71577,0.6866 0.50403,0.6866 -0.0502,0 -0.31809,-0.26789 -0.59531,-0.59532 z m -2.78674,-2.77812 c -0.3291,-0.41965 -0.31975,-0.429 0.0999,-0.0999 0.25466,0.19972 0.46302,0.40808 0.46302,0.46302 0,0.21777 -0.21727,0.0776 -0.56292,-0.36312 z m 26.95511,-3.43938 c 3.6744,-0.0415 9.68706,-0.0415 13.36146,0 3.6744,0.0415 0.66807,0.0754 -6.68073,0.0754 -7.3488,0 -10.35513,-0.0339 -6.68073,-0.0754 z m 53.06745,-4e-5 c 3.75733,-0.0414 9.82952,-0.0414 13.49375,8e-5 3.66423,0.0415 0.59005,0.0754 -6.83151,0.0753 -7.42157,-4e-5 -10.41957,-0.034 -6.66224,-0.0754 z M 295.97561,500.45242 c 0.0127,-0.30822 0.0754,-0.37092 0.15985,-0.15985 0.0764,0.19099 0.067,0.4192 -0.0209,0.50712 -0.0879,0.0879 -0.15046,-0.0684 -0.13897,-0.34727 z m 108.12755,-48.19758 c 1.92815,-0.0452 5.08331,-0.0452 7.01146,0 1.92815,0.0452 0.35057,0.0822 -3.50573,0.0822 -3.8563,0 -5.43388,-0.037 -3.50573,-0.0822 z M 374.75095,419.7281 c 0.19099,-0.0764 0.4192,-0.067 0.50712,0.0209 0.0879,0.0879 -0.0683,0.15045 -0.34727,0.13897 -0.30822,-0.0127 -0.37092,-0.0754 -0.15985,-0.15986 z"
         id="path6196" />
      <path
         style="fill:#ececec;fill-opacity:1;stroke-width:0.264583"
         d="m 378.57087,586.93103 c 0.69122,-0.0545 1.82232,-0.0545 2.51354,0 0.69123,0.0545 0.12568,0.0991 -1.25677,0.0991 -1.38245,0 -1.94799,-0.0446 -1.25677,-0.0991 z m 57.61302,-21.86583 c 0,-0.0549 0.20836,-0.2633 0.46302,-0.46302 0.41965,-0.32911 0.42901,-0.31975 0.0999,0.0999 -0.34564,0.44072 -0.56292,0.58088 -0.56292,0.36312 z m -115.92125,-2.74437 c -0.32911,-0.41965 -0.31975,-0.42901 0.0999,-0.0999 0.44073,0.34564 0.58088,0.56292 0.36312,0.56292 -0.0549,0 -0.2633,-0.20836 -0.46302,-0.46302 z m 17.82698,-4.74645 c 0.25466,-0.0666 0.67138,-0.0666 0.92604,0 0.25466,0.0666 0.0463,0.121 -0.46302,0.121 -0.50932,0 -0.71768,-0.0544 -0.46302,-0.121 z m 81.11133,0.002 c 0.19099,-0.0764 0.4192,-0.067 0.50712,0.0209 0.0879,0.0879 -0.0684,0.15045 -0.34727,0.13896 -0.30822,-0.0127 -0.37092,-0.0754 -0.15985,-0.15985 z m -85.81302,-29.32024 c 2e-5,-13.67896 0.0322,-19.23611 0.0714,-12.34923 0.0393,6.88688 0.0393,18.07876 -2e-5,24.87083 -0.0393,6.79208 -0.0714,1.15736 -0.0714,-12.5216 z m -37.41232,-22.51163 c 0.0127,-0.30823 0.0754,-0.37092 0.15985,-0.15985 0.0764,0.19099 0.067,0.4192 -0.0209,0.50711 -0.0879,0.0879 -0.15046,-0.0683 -0.13897,-0.34726 z m 0,-4.49792 c 0.0127,-0.30822 0.0754,-0.37092 0.15985,-0.15985 0.0764,0.19099 0.067,0.4192 -0.0209,0.50712 -0.0879,0.0879 -0.15046,-0.0684 -0.13897,-0.34727 z m 103.49734,-48.97596 c 0.25467,-0.0666 0.67138,-0.0666 0.92605,0 0.25466,0.0666 0.0463,0.121 -0.46302,0.121 -0.50933,0 -0.71769,-0.0544 -0.46303,-0.121 z m 42.23344,-5.04314 c -0.3291,-0.41964 -0.31975,-0.429 0.0999,-0.0999 0.44073,0.34564 0.58089,0.56291 0.36312,0.56291 -0.0549,0 -0.2633,-0.20836 -0.46302,-0.46302 z M 383.74678,419.7281 c 0.191,-0.0764 0.4192,-0.067 0.50712,0.0209 0.0879,0.0879 -0.0684,0.15045 -0.34726,0.13897 -0.30823,-0.0127 -0.37092,-0.0754 -0.15986,-0.15986 z"
         id="path6194" />
      <path
         style="fill:#ececec;fill-opacity:1;stroke-width:0.264583"
         d="m 372.89887,586.68019 c 0.19099,-0.0764 0.4192,-0.067 0.50711,0.0209 0.0879,0.0879 -0.0684,0.15045 -0.34726,0.13896 -0.30823,-0.0127 -0.37092,-0.0754 -0.15985,-0.15985 z m 64.60794,-22.93791 c 0,-0.0549 0.20836,-0.2633 0.46302,-0.46302 0.41965,-0.3291 0.429,-0.31975 0.0999,0.0999 -0.34565,0.44073 -0.56292,0.58089 -0.56292,0.36312 z m 2.38125,-2.38125 c 0,-0.0549 0.20836,-0.2633 0.46302,-0.46302 0.41965,-0.3291 0.429,-0.31975 0.0999,0.0999 -0.34565,0.44073 -0.56292,0.58089 -0.56292,0.36312 z M 296.0063,504.7078 c 0.005,-0.43656 0.0647,-0.58312 0.13178,-0.32569 0.0671,0.25743 0.0627,0.61462 -0.01,0.79375 -0.0725,0.17913 -0.12736,-0.0315 -0.12197,-0.46806 z m 0.01,-2.24895 c 0,-0.50933 0.0544,-0.71769 0.121,-0.46303 0.0666,0.25467 0.0666,0.67138 0,0.92605 -0.0666,0.25466 -0.121,0.0463 -0.121,-0.46302 z m 120.9758,-34.66042 c 0,-7.3488 0.034,-10.35513 0.0754,-6.68073 0.0415,3.6744 0.0415,9.68706 0,13.36146 -0.0415,3.6744 -0.0754,0.66807 -0.0754,-6.68073 z M 318.70889,446.0027 c 0,-0.0549 0.20836,-0.2633 0.46302,-0.46302 0.41965,-0.32911 0.429,-0.31975 0.0999,0.0999 -0.34565,0.44073 -0.56292,0.58089 -0.56292,0.36313 z m 2.91042,-2.94281 c 0.34177,-0.36381 0.68094,-0.66146 0.7537,-0.66146 0.0728,0 -0.14734,0.29765 -0.48912,0.66146 -0.34177,0.3638 -0.68094,0.66145 -0.7537,0.66145 -0.0728,0 0.14734,-0.29765 0.48912,-0.66145 z m 54.45456,-23.33179 c 0.19099,-0.0764 0.4192,-0.067 0.50711,0.0209 0.0879,0.0879 -0.0684,0.15045 -0.34726,0.13897 -0.30823,-0.0127 -0.37092,-0.0754 -0.15985,-0.15986 z"
         id="path6192" />
      <path
         style="fill:#ececec;fill-opacity:1;stroke-width:0.264583"
         d="m 385.59887,586.68019 c 0.19099,-0.0764 0.4192,-0.067 0.50711,0.0209 0.0879,0.0879 -0.0684,0.15045 -0.34726,0.13896 -0.30823,-0.0127 -0.37092,-0.0754 -0.15985,-0.15985 z m -67.98206,-27.26978 c -0.32911,-0.41965 -0.31975,-0.429 0.0999,-0.0999 0.44073,0.34565 0.58089,0.56292 0.36313,0.56292 -0.0549,0 -0.2633,-0.20836 -0.46302,-0.46302 z m 51.69728,-42.58934 c 0.40218,-0.0608 0.9975,-0.0592 1.32292,0.004 0.32542,0.0628 -0.004,0.11256 -0.73124,0.11057 -0.72761,-0.002 -0.99386,-0.0534 -0.59168,-0.11418 z m -73.33848,-13.19365 c 0.0127,-0.30822 0.0754,-0.37092 0.15985,-0.15985 0.0764,0.19099 0.067,0.4192 -0.0209,0.50712 -0.0879,0.0879 -0.15046,-0.0684 -0.13897,-0.34727 z m 37.81453,-17.14347 c 0,-0.0549 0.20836,-0.2633 0.46302,-0.46302 0.41965,-0.32911 0.42901,-0.31975 0.0999,0.0999 -0.34565,0.44073 -0.56292,0.58089 -0.56292,0.36313 z m 63.34524,-27.41677 c 0,-2.69214 0.0393,-3.79347 0.0873,-2.4474 0.048,1.34607 0.048,3.54873 0,4.89479 -0.048,1.34607 -0.0873,0.24474 -0.0873,-2.44739 z m -23.39316,-6.71448 c 0,-0.0549 0.20836,-0.2633 0.46303,-0.46302 0.41964,-0.32911 0.429,-0.31975 0.0999,0.0999 -0.34564,0.44073 -0.56292,0.58089 -0.56292,0.36313 z m 62.81341,-10.285 -0.50403,-0.59531 0.59531,0.50402 c 0.55945,0.47367 0.71576,0.6866 0.50403,0.6866 -0.0502,0 -0.3181,-0.26789 -0.59531,-0.59531 z m -63.92135,-22.07501 c 0.191,-0.0764 0.4192,-0.067 0.50712,0.0209 0.0879,0.0879 -0.0683,0.15045 -0.34726,0.13896 -0.30823,-0.0127 -0.37092,-0.0754 -0.15986,-0.15985 z m 14.02292,0 c 0.19099,-0.0764 0.4192,-0.067 0.50712,0.0209 0.0879,0.0879 -0.0683,0.15045 -0.34727,0.13896 -0.30822,-0.0127 -0.37092,-0.0754 -0.15985,-0.15985 z m -9.66879,-0.2672 c 0.25743,-0.0671 0.61461,-0.0627 0.79375,0.01 0.17913,0.0725 -0.0315,0.12736 -0.46806,0.12197 -0.43656,-0.005 -0.58313,-0.0647 -0.32569,-0.13177 z m 4.75746,9.8e-4 c 0.25466,-0.0666 0.67138,-0.0666 0.92604,0 0.25466,0.0666 0.0463,0.121 -0.46302,0.121 -0.50932,0 -0.71768,-0.0544 -0.46302,-0.121 z"
         id="path6190" />
      <path
         style="fill:#ececec;fill-opacity:1;stroke-width:0.264583"
         d="m 371.8063,586.58019 c -15.40641,-1.36678 -30.86765,-7.55836 -43.70344,-17.5014 -3.74014,-2.89724 -10.25907,-9.30521 -13.26766,-13.04182 -5.46658,-6.78938 -10.60738,-15.65214 -13.12172,-22.62187 -2.92504,-8.10819 -4.27353,-13.75135 -5.11226,-21.39388 -0.59262,-5.39998 -0.41027,-15.1404 0.38458,-20.54258 3.35296,-22.78836 15.51941,-42.74669 34.30845,-56.28097 7.80172,-5.61979 18.4452,-10.55135 27.86263,-12.90989 2.40254,-0.60171 8.35635,-1.71644 10.4843,-1.96298 9.84588,-1.14074 21.43543,-0.38909 30.75961,1.99496 28.80177,7.36415 51.42302,29.3624 59.75298,58.10735 3.60722,12.44776 4.14014,27.44344 1.42235,40.0234 -2.67741,12.3931 -7.95263,23.97917 -15.17879,33.3375 -8.53392,11.05195 -18.73462,19.34062 -30.92478,25.12821 -3.59227,1.70552 -3.84893,1.80829 -8.93633,3.57845 -5.84458,2.03363 -12.96651,3.55216 -19.16795,4.08698 -3.59376,0.30993 -12.06091,0.30914 -15.56197,-0.002 z m -6.00158,-47.75168 c 0,-18.21899 0.0193,-18.96599 0.51393,-19.93562 1.05088,-2.0599 0.68599,-2.00166 12.58295,-2.00833 l 10.58333,-0.006 0.88983,0.63464 c 1.67624,1.19552 1.62372,0.50596 1.62372,21.31728 v 18.9262 h 14.05325 14.05326 l 1.24335,-0.67671 c 0.73094,-0.39783 1.53624,-1.12842 1.95403,-1.77276 l 0.71069,-1.09603 V 528.86414 503.5171 h 9.65729 c 5.31151,0 9.65015,-0.0893 9.64143,-0.19844 -0.009,-0.10914 -1.46535,-1.38906 -3.23694,-2.84427 -5.27218,-4.33064 -15.82997,-13.07371 -17.25241,-14.28699 -0.7276,-0.62062 -2.27541,-1.9197 -3.43958,-2.88685 l -2.11667,-1.75845 -0.13229,-14.00847 -0.13229,-14.00847 -0.60231,-0.60247 c -0.59769,-0.59783 -0.6663,-0.60306 -8.92223,-0.67927 -9.43592,-0.0871 -9.66677,-0.0479 -10.1973,1.73199 -0.18602,0.62409 -0.2632,2.77745 -0.20859,5.81961 0.0477,2.65592 0.0247,4.82881 -0.0511,4.82864 -0.0758,-1.7e-4 -1.74265,-1.34107 -3.70417,-2.97977 -1.96152,-1.63871 -5.35233,-4.45121 -7.53514,-6.24999 -2.18282,-1.79879 -4.60904,-3.82155 -5.39162,-4.49502 -2.59615,-2.23419 -2.35518,-2.21726 -4.57337,-0.32125 -1.06769,0.91262 -3.42954,2.92381 -5.24856,4.46931 -1.81901,1.5455 -3.66447,3.12722 -4.10104,3.51493 -0.43656,0.38771 -3.82984,3.29766 -7.54062,6.46656 -3.71078,3.1689 -7.40172,6.32622 -8.20209,7.01626 -4.02469,3.46992 -11.25011,9.6473 -13.75629,11.76095 -1.55291,1.30969 -4.5527,3.86953 -6.66621,5.68854 -10.18884,8.76915 -12.59603,10.82353 -14.26104,12.17083 -0.98909,0.80037 -1.80523,1.54451 -1.81365,1.65365 -0.008,0.10914 4.27094,0.19844 9.50969,0.19844 h 9.525 v 25.01162 c 0,21.9768 0.0497,25.13055 0.40951,25.9917 0.54628,1.30743 1.35236,2.14504 2.6332,2.73619 0.98683,0.45545 2.01919,0.48884 15.27969,0.49426 l 14.22135,0.006 z"
         id="path6188" />
    </g>
  </g>
</svg>
