<?xml version="1.0" encoding="UTF-8" standalone="no"?>
<!-- Created with Inkscape (http://www.inkscape.org/) -->

<svg
   width="400"
   height="400"
   viewBox="0 0 105.83333 105.83334"
   version="1.1"
   id="svg5825"
   inkscape:version="1.2.1 (9c6d41e410, 2022-07-14)"
   sodipodi:docname="linkedin.svg"
   xmlns:inkscape="http://www.inkscape.org/namespaces/inkscape"
   xmlns:sodipodi="http://sodipodi.sourceforge.net/DTD/sodipodi-0.dtd"
   xmlns="http://www.w3.org/2000/svg"
   xmlns:svg="http://www.w3.org/2000/svg">
  <sodipodi:namedview
     id="namedview5827"
     pagecolor="#ffffff"
     bordercolor="#000000"
     borderopacity="0.25"
     inkscape:showpageshadow="2"
     inkscape:pageopacity="0.0"
     inkscape:pagecheckerboard="0"
     inkscape:deskcolor="#d1d1d1"
     inkscape:document-units="mm"
     showgrid="false"
     inkscape:zoom="0.84096521"
     inkscape:cx="71.941145"
     inkscape:cy="168.8536"
     inkscape:window-width="1366"
     inkscape:window-height="705"
     inkscape:window-x="-8"
     inkscape:window-y="-8"
     inkscape:window-maximized="1"
     inkscape:current-layer="g6992" />
  <defs
     id="defs5822" />
  <g
     inkscape:label="Capa 1"
     inkscape:groupmode="layer"
     id="layer1">
    <g
       id="g6803"
       style="fill:#ececec"
       transform="matrix(0.99267932,0,0,0.99109054,230.10993,-190.03943)">
      <g
         id="g6992"
         transform="matrix(1.0073747,0,0,1.0089896,-4.1848078,-13.272079)">
        <path
           id="path6367"
           style="fill:#ececec;stroke-width:0.130001;stroke-linejoin:round;stroke-opacity:0.394958"
           d="m -171.77595,203.24259 a 52.916709,52.916858 0 0 0 -11.8037,1.04122 52.916709,52.916858 0 0 0 -41.335,62.3842 52.916709,52.916858 0 0 0 62.38314,41.33542 52.916709,52.916858 0 0 0 41.33603,-62.38367 l -18.52837,3.75976 v 26.7906 c 0,5.86317 -4.72818,10.58328 -10.60076,10.58328 h -41.95931 c -5.87257,0 -10.60023,-4.72011 -10.60023,-10.58328 v -38.3649 c 0,-5.86318 4.72766,-10.58328 10.60022,-10.58328 h 41.95932 c 5.87257,0 10.60076,4.7201 10.60076,10.58328 v 11.5743 l 18.52836,-3.76028 a 52.916709,52.916858 0 0 0 -50.58046,-42.37665 z m -16.3918,31.78774 c -1.39405,0 -2.59009,0.49997 -3.5883,1.4996 -0.98101,0.99965 -1.47175,2.20966 -1.47175,3.6302 0,1.42054 0.49918,2.64823 1.49739,3.68294 0.99822,1.03471 2.18581,1.55185 3.56266,1.55185 1.41127,0 2.6073,-0.50856 3.5883,-1.52572 0.99821,-1.01718 1.49739,-2.25346 1.49739,-3.70907 0,-1.45562 -0.49074,-2.67473 -1.47173,-3.65683 -0.9638,-0.9821 -2.16827,-1.47297 -3.61396,-1.47297 z m 30.04941,12.57455 c -2.23737,0 -4.15609,0.49946 -5.75667,1.4991 -1.60058,0.99964 -3.01168,2.57832 -4.23363,4.73544 v -5.39305 h -8.41598 v 26.56933 h 9.03514 v -11.15382 c 0,-3.2269 0.43908,-5.55905 1.31683,-6.99714 0.87774,-1.43807 2.27196,-2.15721 4.18234,-2.15721 1.49731,0 2.5816,0.48229 3.25281,1.44685 0.68842,0.96456 1.03262,2.50789 1.03262,4.62993 v 14.23139 h 9.21623 v -15.20501 c 0,-2.54294 -0.14653,-4.45442 -0.43912,-5.73466 -0.29258,-1.28024 -0.7828,-2.36753 -1.47123,-3.26194 -0.8261,-1.03472 -1.90195,-1.82406 -3.22716,-2.36772 -1.308,-0.5612 -2.80554,-0.84149 -4.49218,-0.84149 z m -34.64469,0.84149 v 26.56933 h 9.21621 v -26.56933 z" />
      </g>
    </g>
  </g>
</svg>
