<?xml version="1.0" encoding="UTF-8" standalone="no"?>
<!-- Created with Inkscape (http://www.inkscape.org/) -->

<svg
   width="350"
   height="500"
   viewBox="0 0 92.604165 132.29167"
   version="1.1"
   id="svg5825"
   inkscape:version="1.2.1 (9c6d41e410, 2022-07-14)"
   sodipodi:docname="site.svg"
   xmlns:inkscape="http://www.inkscape.org/namespaces/inkscape"
   xmlns:sodipodi="http://sodipodi.sourceforge.net/DTD/sodipodi-0.dtd"
   xmlns="http://www.w3.org/2000/svg"
   xmlns:svg="http://www.w3.org/2000/svg">
  <sodipodi:namedview
     id="namedview5827"
     pagecolor="#ffffff"
     bordercolor="#000000"
     borderopacity="0.25"
     inkscape:showpageshadow="2"
     inkscape:pageopacity="0.0"
     inkscape:pagecheckerboard="0"
     inkscape:deskcolor="#d1d1d1"
     inkscape:document-units="mm"
     showgrid="false"
     inkscape:zoom="0.84096521"
     inkscape:cx="217.01255"
     inkscape:cy="239.01108"
     inkscape:window-width="1366"
     inkscape:window-height="705"
     inkscape:window-x="-8"
     inkscape:window-y="-8"
     inkscape:window-maximized="1"
     inkscape:current-layer="layer1" />
  <defs
     id="defs5822" />
  <g
     inkscape:label="Capa 1"
     inkscape:groupmode="layer"
     id="layer1">
    <path
       style="fill:#cccccc;fill-opacity:1;stroke-width:0.216235"
       d="m 42.144792,132.30005 c 0.209781,-0.055 0.500839,-0.0514 0.646808,0.008 0.145976,0.0594 -0.02567,0.10439 -0.381403,0.1 -0.355742,-0.004 -0.475179,-0.053 -0.265405,-0.10801 z m -5.933168,-0.42708 c 0.148226,-0.0602 0.390774,-0.0602 0.539008,0 0.148226,0.0602 0.02697,0.1094 -0.269504,0.1094 -0.29646,0 -0.41773,-0.0493 -0.269504,-0.1094 z m -26.061513,-9.12759 c -0.2681833,-0.34397 -0.2605561,-0.35164 0.08141,-0.0819 0.207516,0.16371 0.377303,0.33449 0.377303,0.37952 0,0.1785 -0.177056,0.0636 -0.45871,-0.29764 z m 0.243102,-14.04239 c 0.278509,-0.29819 0.554882,-0.54218 0.614172,-0.54218 0.05932,0 -0.120064,0.24399 -0.398564,0.54218 -0.278508,0.2982 -0.554881,0.54218 -0.6141716,0.54218 -0.059323,0 0.1200636,-0.24398 0.3985636,-0.54218 z M 47.099555,68.535 c 0.326097,-0.04967 0.85971,-0.04967 1.185807,0 0.326105,0.04967 0.05932,0.09034 -0.592904,0.09034 -0.652194,0 -0.919009,-0.04066 -0.592903,-0.09034 z m 6.84538,-1.231127 c 0,-0.04688 0.150565,-0.143352 0.334596,-0.214384 0.191871,-0.0741 0.278419,-0.03771 0.20288,0.08523 -0.126616,0.206073 -0.537476,0.304802 -0.537476,0.129154 z m -23.516998,-5.282317 -0.522686,-0.596391 0.592904,0.525761 c 0.326097,0.289171 0.592904,0.557547 0.592904,0.596391 0,0.170089 -0.174596,0.03164 -0.663122,-0.525761 z m 32.787905,-1.220454 c 0,-0.045 0.169788,-0.215819 0.377304,-0.379523 0.341963,-0.269762 0.349582,-0.26209 0.08141,0.08188 -0.281662,0.361252 -0.45871,0.476129 -0.45871,0.297638 z M 92.620098,46.46108 c 4.31e-4,-1.431347 0.03528,-1.988681 0.07758,-1.238512 0.04221,0.75017 0.04188,1.921272 -8.15e-4,2.60245 -0.04262,0.681178 -0.07717,0.06738 -0.07676,-1.363938 z M 24.01022,48.087607 c 0,-0.298195 0.04897,-0.420187 0.108745,-0.271089 0.05981,0.149098 0.05981,0.39308 0,0.542178 -0.05981,0.149098 -0.108745,0.02713 -0.108745,-0.271089 z m -0.01703,-3.813314 c 0.01035,-0.252638 0.06144,-0.304023 0.130258,-0.131024 0.06226,0.156557 0.0546,0.343605 -0.01703,0.415671 -0.07163,0.07205 -0.122598,-0.05607 -0.113243,-0.284647 z M 0.27691328,42.7562 c 0.0103489,-0.252638 0.0614416,-0.304031 0.1302579,-0.131024 0.0622565,0.156549 0.0545967,0.343605 -0.0170309,0.415671 -0.0716276,0.07205 -0.12259807,-0.05607 -0.11323515,-0.284647 z M 29.150619,31.740412 c 0,-0.045 0.169788,-0.215818 0.377304,-0.379523 0.341963,-0.269753 0.34959,-0.262081 0.08141,0.08188 -0.281653,0.361253 -0.45871,0.476138 -0.45871,0.297638 z m 32.312882,-2.032607 c -0.268176,-0.343966 -0.260557,-0.351638 0.08141,-0.08188 0.35914,0.283311 0.473353,0.4614 0.295897,0.4614 -0.04474,0 -0.214556,-0.170786 -0.377303,-0.379523 z M 31.52225,29.354839 c 0,-0.045 0.169788,-0.215819 0.377304,-0.379523 0.341963,-0.269761 0.349582,-0.262089 0.08141,0.08188 -0.281662,0.361253 -0.45871,0.476138 -0.45871,0.297646 z m 11.602112,-5.488037 c 0.155641,-0.06262 0.341596,-0.05492 0.41324,0.01713 0.07163,0.07205 -0.05566,0.123319 -0.282982,0.113901 -0.251161,-0.01041 -0.302254,-0.0618 -0.130258,-0.131024 z m 2.145063,-0.222106 c 0.268192,-0.05188 0.656276,-0.04992 0.862416,0.0041 0.206131,0.05426 -0.01328,0.09673 -0.487622,0.09432 -0.474323,-0.0025 -0.642986,-0.0468 -0.374794,-0.0987 z M 79.142916,13.87624 c -0.268184,-0.343966 -0.260557,-0.351638 0.08141,-0.08188 0.207516,0.163696 0.377303,0.334482 0.377303,0.379523 0,0.178491 -0.177048,0.06361 -0.458701,-0.297646 z M 43.339962,0.22788776 c 0.155641,-0.0626227 0.341596,-0.0549178 0.41324,0.0171311 0.07163,0.0720489 -0.05574,0.12331922 -0.282974,0.11390122 -0.251169,-0.0104098 -0.302254,-0.061803 -0.130266,-0.13102411 z"
       id="path5685" />
    <path
       style="fill:#cccccc;fill-opacity:1;stroke-width:0.216235"
       d="m 43.434308,132.29501 c 0.326097,-0.0497 0.859719,-0.0497 1.185816,0 0.326097,0.0497 0.05932,0.0904 -0.592912,0.0904 -0.652194,0 -0.919001,-0.0407 -0.592904,-0.0904 z m 7.88297,0.007 c 0.155633,-0.0626 0.341596,-0.0549 0.41324,0.0171 0.07163,0.072 -0.05574,0.12333 -0.282982,0.11391 -0.251169,-0.0104 -0.302254,-0.0618 -0.130258,-0.13102 z M 39.068359,132.0168 c 0,-0.24935 0.927711,-0.25309 2.47943,-0.01 1.015605,0.15912 0.97504,0.17058 -0.700711,0.19788 -1.061286,0.0173 -1.778719,-0.0585 -1.778719,-0.1879 z m 15.25388,0.0733 c 0.148226,-0.0602 0.390773,-0.0602 0.539008,0 0.148225,0.0602 0.02697,0.10939 -0.269504,0.10939 -0.29646,0 -0.41773,-0.0493 -0.269504,-0.10939 z m -17.841111,-0.29011 -0.539008,-0.17364 0.539008,0.004 c 0.296452,0.002 0.830065,0.0785 1.185815,0.16959 l 0.646808,0.16555 -0.646808,0.004 c -0.35575,0.002 -0.889363,-0.0741 -1.185815,-0.1696 z m 19.997134,0.0732 c 0.148226,-0.0602 0.390781,-0.0602 0.539007,0 0.148226,0.0602 0.02697,0.1094 -0.269504,0.1094 -0.296451,0 -0.417729,-0.0493 -0.269503,-0.1094 z m -21.331175,-0.22138 c 0.155633,-0.0626 0.341596,-0.0549 0.413239,0.0171 0.07163,0.072 -0.05574,0.12333 -0.282981,0.11391 -0.25117,-0.0104 -0.302254,-0.0618 -0.130258,-0.13102 z m -6.110069,-0.92674 c 0.07008,-0.11407 0.269854,-0.15242 0.443928,-0.0852 0.44568,0.17203 0.393161,0.29263 -0.127431,0.29263 -0.244161,0 -0.386585,-0.0933 -0.316497,-0.2074 z m -1.07219,-0.22634 c -0.07326,-0.11928 -0.03626,-0.21688 0.08235,-0.21688 0.11858,0 0.275558,0.0976 0.348848,0.21688 0.07326,0.11928 0.03626,0.21687 -0.08235,0.21687 -0.118581,0 -0.275567,-0.0976 -0.348849,-0.21687 z m -5.282269,-1.31403 c 0,-0.12632 0.09703,-0.16935 0.215608,-0.0956 0.118581,0.0737 0.2156,0.17707 0.2156,0.22967 0,0.0526 -0.09702,0.0956 -0.2156,0.0956 -0.118581,0 -0.215608,-0.10335 -0.215608,-0.22967 z m -3.443396,-1.06308 c -0.174433,-0.11096 -0.261029,-0.25822 -0.192425,-0.32722 0.06861,-0.069 0.247461,0.0233 0.397464,0.20507 0.311022,0.37697 0.251389,0.4125 -0.205039,0.12215 z m 62.087294,-4.2109 c 0,-0.045 0.169787,-0.21582 0.377304,-0.37952 0.341962,-0.26976 0.349581,-0.26209 0.08141,0.0819 -0.281662,0.36126 -0.45871,0.47613 -0.45871,0.29764 z m 1.509215,-1.51809 c 0,-0.045 0.169787,-0.21582 0.377304,-0.37952 0.341962,-0.26977 0.34959,-0.26209 0.08141,0.0819 -0.281654,0.36125 -0.45871,0.47614 -0.45871,0.29765 z M 7.2179031,115.75148 c 0,-0.53675 0.042048,-0.75633 0.093434,-0.48795 0.051419,0.26837 0.051419,0.70754 0,0.97591 -0.051419,0.26839 -0.093434,0.0488 -0.093434,-0.48796 z m 1.8816949,-5.50365 c 0,-0.045 0.1697875,-0.21582 0.3773038,-0.37952 0.3419626,-0.26976 0.3495899,-0.26209 0.081406,0.0819 -0.2816537,0.36126 -0.4587099,0.47613 -0.4587099,0.29764 z m 15.034687,-8.18612 c 0.146254,-0.14821 0.320221,-0.21485 0.386601,-0.14807 0.06641,0.0668 -0.05329,0.18803 -0.26591,0.26948 -0.307273,0.11769 -0.332037,0.0928 -0.120691,-0.12141 z m 0.919905,-0.18995 c 0,-0.11928 0.102748,-0.21688 0.228328,-0.21688 0.125581,0 0.168362,0.0976 0.09508,0.21688 -0.07326,0.11927 -0.176038,0.21686 -0.228328,0.21686 -0.05232,0 -0.09508,-0.0976 -0.09508,-0.21686 z m -1.105518,-5.584427 c -0.268175,-0.343974 -0.260556,-0.351646 0.08141,-0.08188 0.359141,0.28331 0.473354,0.461408 0.295898,0.461408 -0.04474,0 -0.214557,-0.170787 -0.377304,-0.379524 z M 50.023663,68.325501 c 0.155633,-0.06262 0.341596,-0.05492 0.41324,0.01713 0.07163,0.07205 -0.05574,0.123319 -0.282982,0.113901 -0.251169,-0.01041 -0.302254,-0.0618 -0.130258,-0.131024 z M 31.279165,62.889225 c -0.268184,-0.343966 -0.260557,-0.351638 0.08141,-0.08188 0.207516,0.163705 0.377303,0.334491 0.377303,0.379524 0,0.178491 -0.177048,0.06361 -0.458701,-0.297647 z m 30.319662,-0.271089 c 0.21463,-0.238556 0.438745,-0.433736 0.498036,-0.433736 0.05932,0 -0.0678,0.19518 -0.282436,0.433736 -0.21463,0.238565 -0.438746,0.433745 -0.498036,0.433745 -0.05932,0 0.0678,-0.19518 0.282436,-0.433745 z m 0.754608,-0.732489 c 0,-0.045 0.169787,-0.215819 0.377303,-0.379523 0.341955,-0.269761 0.349582,-0.262089 0.08141,0.08188 -0.281654,0.361253 -0.458702,0.476137 -0.458702,0.297646 z M 29.554341,61.154265 c -0.268183,-0.343975 -0.260556,-0.351647 0.08141,-0.08188 0.207516,0.163704 0.377303,0.33449 0.377303,0.379523 0,0.178491 -0.177056,0.06361 -0.45871,-0.297638 z M 0.27692143,49.479381 c 0.0103489,-0.252639 0.0614416,-0.304024 0.1302579,-0.131024 0.0622565,0.156556 0.0545967,0.343605 -0.0170309,0.41567 -0.0716276,0.07205 -0.12259806,-0.05606 -0.11323514,-0.284646 z M 68.688214,46.244393 c 4.32e-4,-1.431348 0.03528,-1.988674 0.07758,-1.238504 0.04221,0.750161 0.04189,1.921263 -8.15e-4,2.602449 -0.04262,0.681178 -0.07717,0.06738 -0.07676,-1.363945 z M 0.27692143,43.407001 c 0.0103489,-0.252638 0.0614416,-0.304031 0.1302579,-0.131024 0.0622565,0.156549 0.0545967,0.343605 -0.0170309,0.415671 -0.0716276,0.07205 -0.12259806,-0.05607 -0.11323514,-0.284647 z M 63.18834,31.442963 c -0.268184,-0.343966 -0.260556,-0.351638 0.08141,-0.08188 0.35914,0.283318 0.473345,0.461408 0.295898,0.461408 -0.04474,0 -0.214557,-0.170786 -0.377304,-0.379523 z m -2.371631,-2.385582 c -0.268175,-0.343966 -0.260556,-0.351638 0.08141,-0.08188 0.359141,0.283311 0.473354,0.4614 0.295898,0.4614 -0.04474,0 -0.214557,-0.170786 -0.377304,-0.379523 z M 44.188916,23.654639 c 0.148226,-0.06016 0.390782,-0.06016 0.539008,0 0.148226,0.06016 0.02697,0.109384 -0.269504,0.109384 -0.296452,0 -0.41773,-0.04918 -0.269504,-0.109384 z m 2.697997,-0.01197 c 0.327726,-0.04984 0.812838,-0.04852 1.078015,0.0033 0.265177,0.05147 -0.0033,0.09226 -0.59587,0.09063 -0.592911,-0.0016 -0.809872,-0.04377 -0.482145,-0.0936 z M 12.441444,15.123457 C 12.656075,14.8849 12.88019,14.68972 12.93948,14.68972 c 0.05932,0 -0.0678,0.19518 -0.282436,0.433737 -0.21463,0.238564 -0.438745,0.433744 -0.498036,0.433744 -0.05932,0 0.0678,-0.19518 0.282436,-0.433744 z m 1.832615,-1.802822 c 0,-0.03729 0.315325,-0.354498 0.700712,-0.704833 l 0.700712,-0.636965 -0.633248,0.704825 c -0.590272,0.657006 -0.768176,0.804514 -0.768176,0.636973 z M 39.89034,0.661837 c 0.155641,-0.0626227 0.341596,-0.0549178 0.41324,0.0171311 0.07163,0.0720489 -0.05566,0.12332742 -0.282982,0.11390942 -0.251161,-0.0104098 -0.302254,-0.061803 -0.130258,-0.13102411 z m 1.823252,-0.2190074 c 0.209774,-0.0549998 0.500839,-0.0513932 0.646808,0.008197 0.145969,0.059426 -0.02567,0.10439306 -0.381411,0.099975 -0.355742,-0.004098 -0.47517,-0.0530326 -0.265397,-0.108016 z m 2.259724,-0.21021235 c 0.148226,-0.0601637 0.390774,-0.0601637 0.539008,0 0.148226,0.0601637 0.02697,0.10938485 -0.269504,0.10938485 -0.29646,0 -0.41773,-0.0491801 -0.269504,-0.10938485 z"
       id="path5683" />
    <path
       style="fill:#f2f2f2;fill-opacity:1;stroke-width:0.216235"
       d="m 43.596012,132.207 c -0.889363,-0.0988 -2.538721,-0.2309 -3.665246,-0.29344 -4.683678,-0.25999 -7.569267,-0.54449 -9.099164,-0.89712 -0.746662,-0.1721 -1.503095,-0.31843 -1.680966,-0.32518 -0.177871,-0.007 -0.468937,-0.0704 -0.646808,-0.14139 -0.331182,-0.13223 -0.418708,-0.1495 -1.73188,-0.3417 -1.345881,-0.197 -2.268745,-0.4348 -3.550381,-0.91487 -0.540736,-0.20255 -0.73501,-0.25922 -1.379096,-0.40231 -1.029302,-0.22865 -2.077387,-0.622 -2.39395,-0.89846 -0.177871,-0.15534 -0.396168,-0.28938 -0.485104,-0.29788 -0.08894,-0.009 -0.185955,-0.0227 -0.2156,-0.0316 -0.02966,-0.009 -0.273554,-0.0573 -0.542015,-0.10753 -1.266414,-0.2372 -5.014191,-2.40233 -6.973772,-4.02883 -1.01131,-0.83943 -2.7670491,-2.96757 -2.8716221,-3.48072 -0.031699,-0.15543 -0.2642724,-0.72175 -0.5168757,-1.2585 -0.5976055,-1.26984 -0.6547935,-4.28836 -0.1052983,-5.55794 0.1999053,-0.46186 0.345434,-0.91295 0.3234079,-1.00241 -0.022002,-0.0895 0.037484,-0.16265 0.1322381,-0.16265 0.094754,0 0.2872518,-0.31979 0.4277609,-0.71064 0.4632569,-1.28866 4.2682872,-4.928 5.1523542,-4.928 0.156456,0 0.284465,-0.10335 0.284465,-0.22967 0,-0.12632 0.09702,-0.16935 0.215599,-0.0956 0.118581,0.0737 0.215608,0.0487 0.215608,-0.0557 0,-0.18243 1.444775,-1.08944 1.780186,-1.11758 0.08974,-0.007 0.644714,-0.25915 1.233274,-0.55915 0.58856,-0.3 1.291309,-0.58683 1.561652,-0.6374 0.270352,-0.0506 0.5158,-0.1114 0.545446,-0.13518 0.02966,-0.0238 0.126664,-0.0613 0.215599,-0.0835 0.08894,-0.0221 0.50973,-0.19353 0.935095,-0.38081 0.880432,-0.38765 1.367663,-0.54674 2.137248,-0.69785 0.296452,-0.0582 0.781556,-0.16838 1.078007,-0.24482 0.29646,-0.0765 0.684545,-0.16524 0.862416,-0.19731 0.177871,-0.032 0.565956,-0.15606 0.862407,-0.27552 0.296452,-0.11946 0.902834,-0.28407 1.34752,-0.36581 0.444678,-0.0817 0.808503,-0.19554 0.808503,-0.25289 0,-0.0574 -0.99819,-1.346021 -2.218214,-2.863713 C 10.352111,79.216887 1.8205651,62.924799 0.45828834,50.147936 0.02387805,46.07359 0.41289976,40.712404 1.473371,36.159773 4.1046783,24.863274 10.913813,14.876794 20.418736,8.3739237 27.164213,3.7589569 33.743667,1.3979245 42.359544,0.50050153 44.166124,0.31232188 45.763843,0.15856015 45.91004,0.15878965 46.116676,0.15912572 46.18867,2.742018 46.233439,11.761854 l 0.05761,11.60263 -1.25244,-4.1e-5 c -0.688839,-3.3e-5 -1.199961,0.08535 -1.135831,0.189737 0.06413,0.104385 -0.342476,0.145778 -0.903583,0.09198 -0.751943,-0.07205 -0.935159,-0.03803 -0.696792,0.129377 0.240413,0.168884 0.102104,0.199917 -0.539008,0.120925 -0.553447,-0.0682 -0.718125,-0.0423 -0.459647,0.07221 0.322047,0.142688 0.204583,0.224057 -0.586197,0.406081 -0.543929,0.125204 -0.937743,0.144278 -0.875144,0.04238 0.06258,-0.101885 0.318299,-0.185246 0.568229,-0.185246 0.249931,0 0.396674,-0.05811 0.326097,-0.129073 -0.226494,-0.227819 -1.452768,0.153131 -1.452768,0.45131 0,0.187958 -0.161264,0.245352 -0.46492,0.165483 -0.346314,-0.09111 -0.420321,-0.04975 -0.290087,0.162245 0.116283,0.189262 0.09083,0.232327 -0.07603,0.128598 -0.352589,-0.219196 -1.146041,0.07074 -0.971414,0.354917 0.08635,0.140524 0.04351,0.172163 -0.106602,0.07885 -0.367908,-0.228712 -1.109396,0.06648 -1.109396,0.441646 0,0.177926 -0.09702,0.263179 -0.2156,0.189458 -0.118581,-0.07369 -0.2156,-0.02492 -0.2156,0.108434 0,0.133361 -0.09036,0.186303 -0.200801,0.117647 -0.240519,-0.149532 -1.739622,0.535564 -1.739622,0.795006 0,0.09994 0.266807,0.02147 0.592904,-0.174336 l 0.592912,-0.356048 -0.532986,0.442523 c -0.293135,0.243385 -0.608452,0.395589 -0.700704,0.338237 -0.09225,-0.05738 -0.167734,0.0049 -0.167734,0.138196 0,0.13336 -0.08273,0.19104 -0.183836,0.128188 -0.101109,-0.06287 -0.367924,0.03623 -0.592911,0.220155 -0.224988,0.183942 -0.28779,0.272647 -0.139564,0.197122 0.386161,-0.196753 0.332339,8.2e-4 -0.09528,0.349688 -0.247869,0.202245 -0.312896,0.210753 -0.202879,0.02656 0.08905,-0.149098 0.0801,-0.271089 -0.01996,-0.271089 -0.100009,0 -0.34677,0.280851 -0.548354,0.624112 -0.409573,0.697424 -2.871916,3.062694 -3.188389,3.062694 -0.111825,0 -0.20332,0.103352 -0.20332,0.229671 0,0.12632 0.09703,0.169352 0.215608,0.09564 0.350943,-0.218171 0.245734,0.03074 -0.149187,0.352966 -0.314053,0.256237 -0.341816,0.252393 -0.19962,-0.02762 0.09085,-0.178917 0.01556,-0.140147 -0.167311,0.08617 -0.182866,0.226311 -0.285671,0.487662 -0.228458,0.580777 0.0572,0.09312 -0.07766,0.227319 -0.299744,0.298212 -0.4003,0.127794 -1.183575,1.574855 -1.183575,2.186582 0,0.175008 -0.117594,0.318187 -0.261314,0.318187 -0.344277,0 -0.831801,1.201094 -0.624488,1.538519 0.09729,0.158336 0.07171,0.207426 -0.06405,0.123025 -0.269415,-0.167492 -0.566804,0.853291 -0.350943,1.20461 0.09512,0.154811 0.02991,0.197475 -0.178808,0.116926 -0.253109,-0.09771 -0.388484,0.142466 -0.589449,1.045766 -0.143483,0.644924 -0.199229,1.392946 -0.123877,1.662281 0.111589,0.398859 0.09136,0.429351 -0.109088,0.164385 -0.191919,-0.253688 -0.224685,-0.09939 -0.148853,0.700891 0.05346,0.564408 0.0123,0.973414 -0.09144,0.908906 -0.104304,-0.06484 -0.188677,1.203357 -0.188677,2.836056 0,1.706698 0.08235,2.902161 0.19509,2.832071 0.111377,-0.06926 0.143557,0.265237 0.07497,0.779448 -0.08585,0.643768 -0.04995,0.857112 0.125834,0.747834 0.156749,-0.09744 0.201217,-0.03566 0.122606,0.170433 -0.190029,0.498113 0.334172,2.73322 0.62769,2.676376 0.140363,-0.02721 0.226699,0.12136 0.191855,0.330097 -0.03488,0.208737 0.03488,0.379523 0.154932,0.379523 0.120056,0 0.162446,0.146393 0.09418,0.325311 -0.06829,0.178917 -0.011,0.325302 0.127291,0.325302 0.138268,0 0.194715,0.09225 0.125442,0.205007 -0.06926,0.112754 0.02102,0.527515 0.200655,0.921702 0.242532,0.532194 0.296786,0.57712 0.210735,0.174515 -0.09933,-0.464752 -0.08171,-0.487326 0.123283,-0.158081 0.131529,0.211245 0.279421,0.59444 0.328647,0.851546 0.04922,0.257098 0.197078,0.534326 0.328566,0.616072 0.131481,0.08172 0.216546,0.186507 0.189019,0.23281 -0.144217,0.242581 0.302661,1.060103 0.579475,1.060103 0.176885,0 0.264647,0.0927 0.19504,0.205991 -0.06959,0.113295 0.06658,0.309966 0.302645,0.437056 0.251031,0.13513 0.378697,0.363482 0.307526,0.550039 -0.07945,0.208204 0.07766,0.395211 0.452207,0.538465 0.31565,0.120713 0.511987,0.320245 0.436309,0.443416 -0.170008,0.276688 2.178204,2.677409 2.452222,2.507057 0.108786,-0.06762 0.330066,0.04107 0.491729,0.241589 0.252408,0.313048 0.248243,0.341015 -0.0295,0.197958 -0.177871,-0.09162 -0.095,0.03549 0.184162,0.282516 0.27916,0.247007 0.587493,0.399416 0.68518,0.338679 0.0977,-0.06074 0.234986,0.07139 0.305098,0.293556 0.07008,0.222188 0.374329,0.517121 0.676062,0.655408 0.434068,0.198942 0.516606,0.194491 0.395353,-0.02131 -0.08428,-0.150007 0.06087,-0.05098 0.32252,0.220032 0.261673,0.271024 0.567007,0.436048 0.678514,0.366728 0.111516,-0.06934 0.202749,0.01549 0.202749,0.188516 0,0.346696 1.633492,1.094644 1.954635,0.894989 0.110766,-0.06885 0.201396,-0.01139 0.201396,0.12768 0,0.139073 0.137503,0.199794 0.305554,0.134925 0.168093,-0.06483 0.367314,0.04394 0.442812,0.241811 0.08777,0.230073 0.191341,0.275597 0.287342,0.126278 0.105159,-0.163573 0.376032,-0.146089 0.904715,0.05836 l 0.754608,0.291867 -0.754608,-0.09938 c -0.685212,-0.09025 -0.665386,-0.06934 0.2156,0.227335 0.533613,0.179696 1.185571,0.288163 1.448792,0.241048 0.284001,-0.05082 0.423988,0.0033 0.344302,0.132877 -0.0862,0.140278 0.186378,0.175286 0.761134,0.09774 0.557832,-0.07525 0.89541,-0.035 0.89541,0.106885 0,0.148639 0.505264,0.185073 1.45532,0.10495 l 1.455319,-0.122737 -0.05566,25.918857 -0.05566,25.91886 -3.090213,-3.11036 c -1.699611,-1.7107 -3.275426,-3.25031 -3.501798,-3.42136 -0.226381,-0.17105 1.213513,1.34267 3.199748,3.36382 l 3.611342,3.67483 v 5.69053 5.69054 l -0.592903,-0.0318 c -0.326105,-0.0175 -1.320572,-0.11269 -2.209927,-0.21155 z m -4.527653,-18.92316 c 0,-0.045 -0.169788,-0.21582 -0.377304,-0.37953 -0.341963,-0.26976 -0.34959,-0.26209 -0.08141,0.0819 0.281653,0.36125 0.45871,0.47614 0.45871,0.29765 z m -1.105518,-1.16513 c -0.507244,-0.65059 -2.128521,-2.26434 -2.128521,-2.11863 0,0.16274 2.170267,2.49815 2.3215,2.49815 0.05663,0 -0.03023,-0.17078 -0.192979,-0.37952 z m -2.747908,-3.03619 c -0.111841,-0.20874 -0.431477,-0.57804 -0.710311,-0.82067 -0.278826,-0.24263 -0.729705,-0.7306 -1.001955,-1.08436 -0.384205,-0.49925 -0.438647,-0.52699 -0.243248,-0.12395 0.23959,0.49419 1.885606,2.4085 2.070933,2.4085 0.04832,0 -0.0033,-0.17079 -0.115419,-0.37952 z m -2.814328,-3.15065 -0.49912,-0.48194 0.3786,0.60316 c 0.208233,0.33175 0.432837,0.54862 0.499119,0.48194 0.06633,-0.0666 -0.104084,-0.3381 -0.378599,-0.60316 z M 31.3328,104.74511 c -0.112543,-0.20874 -0.522091,-0.6723 -0.910102,-1.03014 -0.631863,-0.58274 -0.616935,-0.54387 0.143149,0.37241 0.915953,1.10419 1.086588,1.25053 0.766953,0.65773 z m -1.668027,-2.10149 c -0.06552,-0.17176 -0.3778,-0.47796 -0.69394,-0.68045 -0.572352,-0.3666 -0.572108,-0.36527 0.05843,0.31229 0.70926,0.76214 0.807509,0.81906 0.635497,0.36816 z m 0.887286,-72.556292 c 0.583989,-0.596391 1.01329,-1.084348 0.954,-1.084348 -0.05932,0 -0.585611,0.487957 -1.169608,1.084348 -0.583989,0.5964 -1.01329,1.084357 -0.953999,1.084357 0.05932,0 0.58561,-0.487957 1.169607,-1.084357 z M 50.670471,132.3022 c 0.155633,-0.0626 0.341596,-0.0549 0.413239,0.0171 0.07163,0.072 -0.05574,0.12333 -0.282981,0.11391 -0.25117,-0.0104 -0.302254,-0.0618 -0.130258,-0.13102 z m 2.142544,-0.22178 c 0.266815,-0.0517 0.703409,-0.0517 0.970216,0 0.266807,0.0517 0.04848,0.094 -0.485104,0.094 -0.533621,0 -0.751918,-0.0423 -0.485112,-0.094 z m 29.483657,-9.17239 c 0.214631,-0.23855 0.438746,-0.43374 0.498036,-0.43374 0.05932,0 -0.0678,0.19519 -0.282436,0.43374 -0.21463,0.23856 -0.438745,0.43375 -0.498036,0.43375 -0.05932,0 0.0678,-0.19519 0.282436,-0.43375 z m -0.35091,-14.47613 c -0.268183,-0.34396 -0.260556,-0.35163 0.08141,-0.0819 0.359141,0.28331 0.473346,0.4614 0.295898,0.4614 -0.04474,0 -0.214557,-0.17079 -0.377304,-0.37952 z M 51.317278,68.108444 c 0.155633,-0.06262 0.341596,-0.05492 0.41324,0.01713 0.07163,0.07205 -0.05574,0.123319 -0.282982,0.113901 -0.251169,-0.01041 -0.302254,-0.0618 -0.130258,-0.131024 z M 36.145032,66.401229 c -0.394619,-0.318015 -0.387742,-0.322532 0.120488,-0.0791 0.659968,0.316163 0.782281,0.416335 0.508352,0.416335 -0.11568,0 -0.398662,-0.15177 -0.62884,-0.33727 z M 24.703679,52.757484 c -0.06674,-0.174983 -0.07978,-0.443359 -0.02893,-0.596392 0.05085,-0.153032 0.143573,-0.0098 0.20605,0.318147 0.12197,0.640473 0.02135,0.79853 -0.177138,0.278245 z m 43.72067,-2.71804 c 0,-0.298195 0.04889,-0.420187 0.108745,-0.271089 0.05981,0.149098 0.05981,0.393081 0,0.542178 -0.05981,0.149098 -0.108745,0.02713 -0.108745,-0.271089 z m 0,-7.59048 c 0,-0.298196 0.04889,-0.420187 0.108745,-0.271081 0.05981,0.149098 0.05981,0.393072 0,0.54217 -0.05981,0.149098 -0.108745,0.02713 -0.108745,-0.271089 z M 24.622982,39.967751 c 0,-0.171876 0.08797,-0.367195 0.195497,-0.434039 0.107523,-0.06688 0.144722,0.07377 0.08265,0.312507 -0.131643,0.506392 -0.27815,0.5704 -0.27815,0.121532 z m 1.293615,-3.374299 c 0.126925,-0.238556 0.279291,-0.433736 0.338581,-0.433736 0.05932,0 0.0041,0.19518 -0.122973,0.433736 -0.126925,0.238565 -0.27929,0.433745 -0.338581,0.433745 -0.05932,0 -0.0041,-0.19518 0.122973,-0.433745 z m 1.293616,-2.385573 c 0.126925,-0.238557 0.27929,-0.433744 0.338581,-0.433744 0.05932,0 0.0041,0.195187 -0.122973,0.433744 -0.126925,0.238556 -0.279291,0.433736 -0.338581,0.433736 -0.05932,0 -0.0041,-0.19518 0.122973,-0.433736 z m 34.900112,-4.06633 c -0.268176,-0.343966 -0.260557,-0.351638 0.08141,-0.08188 0.35914,0.283318 0.473353,0.461408 0.295897,0.461408 -0.04474,0 -0.214556,-0.170787 -0.377303,-0.379524 z M 36.63923,25.723008 c 0.146254,-0.148221 0.320222,-0.214852 0.38661,-0.148081 0.06641,0.0668 -0.05329,0.18804 -0.26591,0.269482 -0.307282,0.117688 -0.332046,0.09278 -0.1207,-0.121401 z m 12.939747,-1.85169 c 0.148234,-0.06016 0.390782,-0.06016 0.539008,0 0.148226,0.06016 0.02697,0.109393 -0.269504,0.109393 -0.296452,0 -0.41773,-0.04926 -0.269504,-0.109393 z M 48.51444,23.649934 c 0.155641,-0.06262 0.341596,-0.05492 0.413239,0.01713 0.07163,0.07205 -0.05574,0.123327 -0.282973,0.113909 -0.251169,-0.01041 -0.302254,-0.0618 -0.130266,-0.131024 z M 51.532878,0.44475583 c 0.155641,-0.0626227 0.341596,-0.0549178 0.41324,0.0171311 0.07163,0.0720489 -0.05574,0.12331923 -0.282982,0.11390123 -0.251161,-0.0104098 -0.302254,-0.0618031 -0.130258,-0.13102412 z"
       id="path5681" />
    <path
       style="fill:#cccccc;fill-opacity:1;stroke-width:0.216235"
       d="m 46.493002,126.81171 c 0,-3.16089 0.03015,-4.45399 0.06698,-2.87354 0.03683,1.58044 0.03683,4.16663 0,5.74707 -0.03683,1.58045 -0.06698,0.28736 -0.06698,-2.87353 z m 0.876056,5.42176 c 0.355743,-0.0911 1.180421,-0.17859 1.832615,-0.19453 0.668655,-0.0163 1.069419,-0.10334 0.918919,-0.19948 -0.146791,-0.0938 0.767393,-0.19453 2.031518,-0.22388 1.264125,-0.0293 2.378696,-0.10327 2.476824,-0.16427 0.09812,-0.061 0.178408,-0.007 0.178408,0.11876 0,0.12632 0.102748,0.22967 0.228329,0.22967 0.12558,0 0.160856,-0.10981 0.07839,-0.24403 -0.107328,-0.17468 0.25658,-0.21797 1.280895,-0.15237 0.78695,0.0504 1.430824,0.0139 1.430824,-0.0813 0,-0.23283 1.669224,-0.222 1.812854,0.0118 0.06242,0.10158 -1.217392,0.29986 -2.844014,0.44061 -1.626623,0.14076 -3.906922,0.35043 -5.067346,0.46592 -2.538737,0.25268 -5.354948,0.24824 -4.358217,-0.007 z m 13.026597,-1.10471 c 0.345426,-0.13887 0.596709,-0.13423 0.743835,0.0138 0.152496,0.1534 -0.01108,0.21917 -0.521659,0.20973 -0.698919,-0.0129 -0.712332,-0.0264 -0.222176,-0.22348 z m 1.202227,-0.19804 c -0.174889,-0.28463 0.427361,-0.51241 0.974371,-0.36852 0.235393,0.0619 0.427989,0.013 0.427989,-0.10861 0,-0.1224 0.288874,-0.17854 0.646808,-0.12569 0.355742,0.0525 0.646808,0.004 0.646808,-0.10844 0,-0.11215 0.291057,-0.16095 0.646807,-0.10843 0.355742,0.0525 0.646808,0.0147 0.646808,-0.0838 0,-0.0986 0.242548,-0.17931 0.539008,-0.17931 1.180559,0 0.420313,0.35056 -1.778956,0.82029 -2.631934,0.56216 -2.56923,0.55617 -2.749643,0.26253 z m 5.444902,-1.00958 c 0.148234,-0.0602 0.390782,-0.0602 0.539008,0 0.148226,0.0602 0.02697,0.10939 -0.269504,0.10939 -0.296452,0 -0.41773,-0.0493 -0.269504,-0.10939 z m 1.060048,-0.21782 c -0.295051,-0.2968 -0.129028,-0.55275 0.287471,-0.4432 0.237162,0.0624 0.431208,0.0136 0.431208,-0.10843 0,-0.12202 0.189386,-0.17204 0.420867,-0.11116 0.231474,0.0609 0.453674,0.0117 0.493774,-0.1093 0.04009,-0.121 0.602617,-0.24917 1.250052,-0.28481 l 1.177146,-0.0648 -1.940423,0.62981 c -1.067235,0.3464 -1.948507,0.63131 -1.958391,0.63315 -0.0099,0.002 -0.08265,-0.0617 -0.161704,-0.14125 z m 4.300539,-1.31281 c -0.252212,-0.25369 -0.130575,-0.4802 0.191186,-0.35601 0.177871,0.0687 0.3234,0.0206 0.3234,-0.10688 0,-0.12744 0.412344,-0.33691 0.916312,-0.46547 1.062858,-0.27115 4.380756,-1.85209 5.012757,-2.38852 0.526768,-0.44711 1.185815,-0.69905 1.185815,-0.45332 0,0.61021 -7.222676,4.17939 -7.62947,3.7702 z m 7.84507,-4.05993 c 0,-0.19188 0.419547,-0.60377 0.932316,-0.91532 0.512777,-0.31155 1.167668,-0.9136 1.455319,-1.3379 0.287651,-0.42429 0.741301,-0.99208 1.008108,-1.26176 0.266806,-0.26966 0.48657,-0.61673 0.488355,-0.77125 0.0057,-0.49646 0.563201,-1.91601 0.698853,-1.77956 0.07212,0.0725 0.08067,-0.062 0.01915,-0.29886 -0.06161,-0.2369 -0.01752,-0.48943 0.09789,-0.56119 0.517992,-0.32201 0.374305,0.84577 -0.26974,2.1923 -0.731693,1.5298 -2.129148,3.24921 -3.58063,4.40556 -0.645569,0.5143 -0.849597,0.59306 -0.849597,0.32798 z M 46.832063,121.2546 c -8.14e-4,-0.13408 0.492935,-0.71963 1.097883,-1.30123 2.190866,-2.10631 3.643358,-3.62825 3.643358,-3.81753 0,-0.1063 0.09702,-0.13296 0.2156,-0.0593 0.118581,0.0737 0.215608,0.0432 0.215608,-0.0678 0,-0.11098 0.485104,-0.70539 1.078007,-1.32091 1.127047,-1.17003 1.528495,-1.29055 0.467829,-0.14045 -2.350624,2.54882 -6.71663,6.90757 -6.718285,6.70712 z m -4.098466,-3.91424 c -1.95659,-1.99144 -3.372225,-3.48083 -3.145845,-3.30976 0.226373,0.17107 1.802571,1.71109 3.502662,3.42226 l 3.091069,3.11122 0.05476,-25.879692 c 0.05435,-25.699898 0.05777,-25.880004 0.485983,-25.924422 0.333472,-0.03459 0.345882,-0.01943 0.05476,0.06697 -0.355074,0.105377 -0.379545,1.587798 -0.4312,26.122955 l -0.05476,26.011239 z m 42.756117,-1.48063 c 0.0016,-0.71567 0.04148,-0.9823 0.08944,-0.59251 0.048,0.3898 0.04702,0.97534 -0.0024,1.30123 -0.04922,0.32587 -0.08845,0.007 -0.08725,-0.70872 z m -0.6979,-1.89762 c 0.02559,-0.26837 -0.112974,-0.8508 -0.307974,-1.29425 -0.195,-0.44347 -0.354553,-0.88946 -0.354553,-0.99108 0,-0.10163 -0.291057,-0.51271 -0.646807,-0.91352 -0.355743,-0.4008 -0.642766,-0.88193 -0.637828,-1.06919 0.0163,-0.61877 1.367859,1.19809 1.983945,2.66698 0.55577,1.32508 0.601338,2.08902 0.124611,2.08902 -0.114384,0 -0.187014,-0.21958 -0.161394,-0.48796 z m -46.182165,-0.97592 c -0.268184,-0.34397 -0.260557,-0.35164 0.08141,-0.0819 0.207516,0.1637 0.377304,0.33449 0.377304,0.37952 0,0.17849 -0.177057,0.0636 -0.45871,-0.29765 z m 16.253015,-0.19593 c 0.266033,-0.31651 0.774752,-0.88252 1.130494,-1.25781 1.156602,-1.22013 2.756505,-3.0083 4.37493,-4.88973 0.872137,-1.01387 1.748389,-1.98979 1.947227,-2.1687 0.198838,-0.17892 0.60093,-0.68391 0.893544,-1.1222 0.292613,-0.4383 0.589065,-0.76144 0.658786,-0.7181 0.06975,0.0434 0.31182,-0.26687 0.538005,-0.68934 0.382202,-0.71388 0.469076,-0.76034 1.229754,-0.65772 1.251551,0.16886 4.477417,1.1049 4.478639,1.29956 0.0016,0.20675 -1.589261,-0.0592 -1.677365,-0.28048 -0.03374,-0.0849 -0.300583,-0.10827 -0.592904,-0.052 -0.292312,0.0562 -0.531486,0.007 -0.531486,-0.10988 0,-0.11664 -0.242548,-0.16544 -0.539,-0.10844 -0.339257,0.0653 -0.539007,0.005 -0.539007,-0.1638 0,-0.16063 -0.172135,-0.22217 -0.430996,-0.15408 -0.23704,0.0624 -0.487329,0.0216 -0.556194,-0.0904 -0.06886,-0.11207 -0.330685,0.0679 -0.581829,0.39989 -0.493269,0.65209 -2.786167,3.34664 -3.494155,4.10623 -0.239077,0.25651 -0.774271,0.87082 -1.189303,1.36515 -0.415033,0.49432 -1.336739,1.52457 -2.048223,2.28945 -0.711493,0.76488 -1.729501,1.88281 -2.26225,2.4843 -0.988143,1.11565 -1.68751,1.56378 -0.808667,0.51817 z m -17.919061,-1.47183 c -0.610106,-0.64889 -1.109283,-1.24215 -1.109283,-1.31835 0,-0.14571 1.621277,1.46804 2.128521,2.11863 0.602112,0.77227 0.05655,0.34393 -1.019238,-0.80028 z m -2.56681,-2.80101 c -0.4761,-0.51955 -0.978919,-1.17829 -1.117374,-1.46388 -0.195399,-0.40304 -0.140957,-0.3753 0.243248,0.12395 0.27225,0.35376 0.723129,0.84173 1.001955,1.08436 0.477941,0.41589 1.017536,1.20019 0.82573,1.20019 -0.04832,0 -0.47746,-0.42508 -0.953559,-0.94462 z m 47.649031,0.57153 c -0.148967,-0.0538 -0.216007,-0.18695 -0.148976,-0.29604 0.06706,-0.10909 -0.03512,-0.19835 -0.226983,-0.19835 -0.191871,0 -0.288898,-0.0976 -0.215608,-0.21687 0.07326,-0.11928 -0.0097,-0.21688 -0.184366,-0.21688 -0.174693,0 -0.665525,-0.33984 -1.090736,-0.75521 -0.425218,-0.41537 -0.773121,-0.70616 -0.773121,-0.64621 0,0.1733 -1.680079,-0.73587 -1.839582,-0.99548 -0.308806,-0.50259 0.101778,-0.39863 1.305757,0.33063 2.209511,1.33833 4.454282,3.45634 3.173615,2.99441 z m -49.745739,-3.03586 -0.3786,-0.60316 0.49912,0.48194 c 0.274515,0.26506 0.444889,0.53648 0.378599,0.60316 -0.06625,0.0666 -0.290886,-0.15019 -0.499119,-0.48194 z m 43.494607,-0.97628 c -0.266807,-0.12943 -0.485104,-0.32377 -0.485104,-0.43187 0,-0.10809 -0.09032,-0.14037 -0.200704,-0.0717 -0.110391,0.0686 -0.265641,0.0191 -0.344994,-0.11006 -0.30262,-0.49253 0.115395,-0.4289 1.332632,0.20288 0.96337,0.50001 1.133973,0.65363 0.722281,0.65038 -0.296452,-0.002 -0.757305,-0.11014 -1.024111,-0.23958 z m -45.208845,-0.98943 c -0.760084,-0.91628 -0.775012,-0.95515 -0.143149,-0.37241 0.598615,0.55206 1.254794,1.42586 1.053251,1.40254 -0.03382,-0.004 -0.443366,-0.46747 -0.910102,-1.03013 z m 42.783318,-0.2339 c 0,-0.10274 -0.227244,-0.14311 -0.504979,-0.0897 -0.277742,0.0534 -0.641568,-0.0333 -0.808511,-0.19273 -0.166944,-0.15941 -0.400552,-0.30043 -0.519133,-0.3134 -0.506291,-0.0553 -1.185816,-0.36703 -1.185816,-0.5439 0,-0.29025 0.198895,-0.24655 2.167774,0.47622 2.074535,0.76157 2.223307,0.8503 1.425601,0.8503 -0.316213,0 -0.574936,-0.0841 -0.574936,-0.18679 z m -44.319889,-1.57802 c -0.630551,-0.67756 -0.630795,-0.67889 -0.05843,-0.31229 0.316139,0.20249 0.628416,0.50869 0.69394,0.68045 0.172012,0.4509 0.07375,0.39398 -0.635497,-0.36816 z M 72.486749,91.163016 c 0,-0.045 0.169788,-0.215819 0.377304,-0.379523 0.341963,-0.269761 0.34959,-0.262089 0.08141,0.08188 -0.281653,0.361253 -0.45871,0.476137 -0.45871,0.297646 z M 43.865516,68.751868 c 0.326097,-0.04967 0.85971,-0.04967 1.185807,0 0.326106,0.04967 0.05932,0.09035 -0.592903,0.09035 -0.652194,0 -0.919009,-0.04066 -0.592904,-0.09035 z M 40.39866,68.32705 c -2.046406,-0.487334 -1.489227,-0.545982 0.726714,-0.07648 1.062394,0.225089 1.640565,0.407507 1.284823,0.405375 -0.355742,-0.0025 -1.260939,-0.15013 -2.011537,-0.328884 z m 11.996626,-0.435474 c 0.155641,-0.06262 0.341596,-0.05492 0.413239,0.01713 0.07163,0.07205 -0.05574,0.123328 -0.282973,0.11391 -0.251169,-0.01041 -0.302254,-0.0618 -0.130266,-0.131025 z M 38.529351,67.605979 c -0.07326,-0.119278 -0.03048,-0.216868 0.09507,-0.216868 0.125581,0 0.228329,0.09759 0.228329,0.216868 0,0.119278 -0.04278,0.216868 -0.09507,0.216868 -0.05232,0 -0.155038,-0.09759 -0.228328,-0.216868 z m -2.102127,-0.793415 c -0.444678,-0.185532 -0.808512,-0.436433 -0.808512,-0.557556 0,-0.147884 0.08854,-0.147155 0.269504,0.0025 0.148226,0.122344 0.609079,0.37031 1.024112,0.551047 0.41504,0.180729 0.657588,0.331532 0.539007,0.335114 -0.11858,0.0033 -0.579433,-0.145278 -1.024111,-0.33081 z M 34.971905,65.87101 c -0.194316,-0.126311 -0.220913,-0.211549 -0.06666,-0.213549 0.141226,-0.0016 0.316742,0.09427 0.390032,0.213549 0.165428,0.269253 0.09079,0.269253 -0.323408,0 z m -1.01153,-0.475908 c -0.259897,-0.126336 -0.524006,-0.364622 -0.586923,-0.529539 -0.06812,-0.178647 0.144641,-0.107221 0.526435,0.176712 0.863295,0.642022 0.882192,0.752243 0.06046,0.352827 z m -1.605713,-1.271299 c -0.482219,-0.422531 -0.484109,-0.433876 -0.03585,-0.215704 0.260206,0.126655 0.532741,0.327351 0.605632,0.445982 0.211949,0.344958 -0.02045,0.25104 -0.569737,-0.230278 z m -1.82018,-1.560068 c -0.54089,-0.506941 -1.084738,-1.11689 -1.20855,-1.355446 -0.123821,-0.238557 0.368218,0.148753 1.093408,0.860694 0.725191,0.71194 1.318526,1.321888 1.318526,1.355445 0,0.194328 -0.328028,-0.04024 -1.203384,-0.860693 z m -2.27004,-2.60245 c -0.253198,-0.485342 -0.252082,-0.485744 0.208013,-0.07484 0.513902,0.458974 0.560855,0.562785 0.254559,0.562785 -0.114408,0 -0.32256,-0.219581 -0.462572,-0.487957 z m -1.230601,-1.789182 c -0.135074,-0.298204 -0.210311,-0.542178 -0.167204,-0.542178 0.04311,0 0.237308,0.243974 0.43155,0.542178 0.19425,0.298196 0.269487,0.54217 0.167212,0.54217 -0.102283,0 -0.296484,-0.243974 -0.431558,-0.54217 z m -0.564375,-1.129225 c -0.117,-0.309081 -0.09224,-0.333991 0.1207,-0.121401 0.147345,0.147114 0.213587,0.322105 0.147207,0.388875 -0.06641,0.0668 -0.186941,-0.05361 -0.267907,-0.267474 z m -0.744511,-1.17202 c -0.132825,-0.383261 -0.203776,-0.734801 -0.157662,-0.781186 0.04612,-0.04639 0.192522,0.229245 0.325355,0.612514 0.132825,0.383261 0.203768,0.734801 0.157654,0.781186 -0.04612,0.04639 -0.192522,-0.229245 -0.325347,-0.612514 z m -1.309799,-3.498562 c -0.134316,-0.62703 -0.286999,-1.579223 -0.339314,-2.115984 -0.05232,-0.536752 0.04971,-0.243974 0.226788,0.650613 0.17704,0.894595 0.416581,1.792797 0.532309,1.996001 0.121759,0.213794 0.129093,0.420031 0.01744,0.489457 -0.106154,0.06598 -0.30289,-0.393048 -0.437206,-1.020087 z m 43.77657,-0.941267 c 0.01035,-0.252638 0.06144,-0.304023 0.130258,-0.131024 0.06226,0.156557 0.0546,0.343606 -0.01703,0.415671 -0.07163,0.07205 -0.122598,-0.05598 -0.113235,-0.284647 z M 23.845639,46.244204 c 4.32e-4,-1.669904 0.03414,-2.324377 0.07521,-1.454388 0.04107,0.869988 0.04074,2.236279 -6.51e-4,3.036194 -0.04131,0.799915 -0.07489,0.0881 -0.07456,-1.581806 z m 0.149889,-3.626421 c -0.03414,-1.041603 0.677055,-3.892478 0.912074,-3.656077 0.142334,0.143172 0.132002,0.315876 -0.03072,0.513072 -0.134895,0.163491 -0.384035,1.070357 -0.553643,2.015247 -0.169608,0.944898 -0.317093,1.452388 -0.327727,1.127758 z m 44.196198,-1.596552 c 0.01035,-0.252638 0.06144,-0.304023 0.130258,-0.131024 0.06226,0.156557 0.0546,0.343605 -0.01703,0.415671 -0.07163,0.07205 -0.122598,-0.05607 -0.113235,-0.284647 z M 25.069941,38.607642 c -0.02901,-0.483826 0.874696,-2.664802 1.104149,-2.664802 0.148861,0 0.142212,0.10218 -0.01939,0.298073 -0.135253,0.163933 -0.43111,0.822677 -0.65745,1.463879 -0.22634,0.641195 -0.418618,1.04748 -0.42728,0.90285 z m 1.502102,-3.362267 c -0.02054,-0.368917 0.737756,-1.680141 1.038803,-1.796346 0.289477,-0.111737 0.288442,-0.07975 -0.0084,0.261557 -0.186028,0.213868 -0.492022,0.681628 -0.679989,1.039471 -0.18796,0.357835 -0.345638,0.580728 -0.350389,0.495318 z m 1.60286,-2.681859 c 0.208535,-0.367638 0.586149,-0.794612 0.839151,-0.948824 0.435706,-0.265581 0.299598,-0.07951 -1.024299,1.400396 -0.106699,0.119278 -0.02339,-0.08393 0.185148,-0.451572 z m 2.161548,-2.476188 c 0.583997,-0.596391 1.110317,-1.084348 1.169608,-1.084348 0.05932,0 -0.370011,0.487957 -0.954,1.084348 -0.583997,0.5964 -1.110317,1.084357 -1.169607,1.084357 -0.05932,0 0.37001,-0.487957 0.953999,-1.084357 z m 32.420681,0.704834 c -0.268175,-0.343966 -0.260556,-0.351638 0.08141,-0.08188 0.359141,0.283319 0.473354,0.461408 0.295898,0.461408 -0.04474,0 -0.214557,-0.170786 -0.377304,-0.379523 z m -1.293615,-1.301225 c -0.268176,-0.343966 -0.260557,-0.351638 0.08141,-0.08188 0.35914,0.283319 0.473353,0.461408 0.295898,0.461408 -0.04474,0 -0.214557,-0.170786 -0.377304,-0.379523 z M 31.962682,28.648719 c 0.153311,-0.254483 0.577788,-0.634326 0.943276,-0.844087 0.365496,-0.209762 0.567512,-0.293565 0.448932,-0.186229 -1.471242,1.331675 -1.656235,1.468585 -1.392208,1.030316 z m 1.845409,-1.468601 c 0.122794,-0.321884 1.594084,-1.069693 1.765453,-0.897317 0.06437,0.06475 0.01744,0.117729 -0.10441,0.117729 -0.1218,0 -0.56893,0.237188 -0.993627,0.527089 -0.424697,0.289908 -0.725036,0.403531 -0.667416,0.252499 z M 36.26552,25.75668 c 0,-0.211933 2.559468,-1.19134 2.712094,-1.037808 0.06095,0.06131 -0.153963,0.178319 -0.47759,0.260024 -0.323628,0.08172 -0.958783,0.328548 -1.411455,0.548539 -0.45268,0.219991 -0.823049,0.323155 -0.823049,0.229245 z m 3.018438,-1.290757 c 0,-0.235114 1.265552,-0.55149 1.452769,-0.363179 0.07057,0.07098 -0.07619,0.129073 -0.326097,0.129073 -0.24993,0 -0.514374,0.0976 -0.587664,0.216876 -0.167237,0.272179 -0.539008,0.284065 -0.539008,0.01721 z M 51.10167,24.08367 c 0.155642,-0.06262 0.341596,-0.05492 0.41324,0.01713 0.07163,0.07205 -0.05566,0.123319 -0.282974,0.113901 -0.251169,-0.01041 -0.302253,-0.0618 -0.130266,-0.131024 z m -9.553881,-0.274524 c 0.665045,-0.181597 2.190672,-0.291802 2.030255,-0.146655 -0.04938,0.04467 -0.671963,0.135729 -1.383447,0.202278 -0.850649,0.07959 -1.072132,0.06049 -0.646808,-0.05566 z m 2.856727,-0.384826 c 0.385395,-0.04812 1.016028,-0.04812 1.401423,0 0.385388,0.04811 0.07008,0.08747 -0.700712,0.08747 -0.770782,0 -1.086099,-0.03934 -0.700711,-0.08747 z m 1.879177,-11.771007 c 0,-6.381419 0.02746,-8.9920079 0.06112,-5.80129 0.03357,3.1907098 0.03357,8.411871 0,11.602589 -0.03357,3.19071 -0.06112,0.580129 -0.06112,-5.801299 z m 35.44647,5.259121 c -0.268184,-0.343975 -0.260557,-0.351647 0.08141,-0.08188 0.207516,0.163704 0.377303,0.33449 0.377303,0.379523 0,0.178491 -0.177048,0.06361 -0.458701,-0.297638 z m -1.293616,-1.518101 c -0.268184,-0.343966 -0.260556,-0.351638 0.08141,-0.08188 0.207517,0.163704 0.377304,0.33449 0.377304,0.379523 0,0.178491 -0.177048,0.06361 -0.458702,-0.297647 z m -2.58723,-2.60245 c -0.268184,-0.343966 -0.260557,-0.351638 0.08141,-0.08188 0.207516,0.163704 0.377303,0.334491 0.377303,0.379523 0,0.178491 -0.177048,0.06361 -0.458701,-0.297646 z M 74.615278,9.9725654 c -0.268184,-0.3439659 -0.260556,-0.351638 0.08141,-0.081885 0.359141,0.2833106 0.473354,0.4613996 0.295906,0.4613996 -0.04474,0 -0.214557,-0.170786 -0.377304,-0.3795229 z M 50.553292,0.44261649 c 0.209781,-0.0549998 0.500838,-0.0513932 0.646807,0.008197 0.145977,0.059426 -0.02567,0.10439307 -0.381402,0.0999751 -0.355743,-0.004098 -0.475179,-0.0530326 -0.265405,-0.108016 z M 48.945647,0.22788776 c 0.155642,-0.0626227 0.341596,-0.0549178 0.41324,0.0171311 0.07163,0.0720489 -0.05574,0.12331922 -0.282982,0.11390122 -0.251161,-0.0104098 -0.302253,-0.061803 -0.130258,-0.13102411 z"
       id="path5679" />
    <path
       style="fill:#cccccc;fill-opacity:1;stroke-width:0.216235"
       d="m 46.541161,123.9262 c -0.07831,-4.65455 -0.142318,-18.93796 -0.142318,-31.740901 0,-22.014879 0.02045,-23.279538 0.377304,-23.304751 0.633843,-0.04475 2.922633,-0.145696 3.665246,-0.161606 0.385387,-0.0083 0.700703,-0.102139 0.700703,-0.208614 0,-0.106475 0.256971,-0.144172 0.571049,-0.08379 0.404496,0.07779 0.525,0.03484 0.413142,-0.147196 -0.114376,-0.186155 0.0049,-0.215999 0.431322,-0.108254 0.396356,0.100066 0.542389,0.07254 0.446136,-0.08413 -0.135701,-0.220852 0.203809,-0.401663 1.085667,-0.578187 1.056568,-0.211483 1.580338,-0.400441 1.580338,-0.570112 0,-0.102607 0.161451,-0.124238 0.358774,-0.04803 0.241504,0.09321 0.307737,0.05541 0.202627,-0.115647 -0.146303,-0.238122 0.554319,-0.654383 1.375111,-0.817014 0.175719,-0.03484 0.353794,-0.166819 0.39572,-0.293335 0.04188,-0.126516 0.164963,-0.174868 0.273415,-0.107442 0.108452,0.06738 0.197192,0.02607 0.197192,-0.09188 0,-0.11795 0.443683,-0.437342 0.985967,-0.709767 0.542283,-0.272426 1.042381,-0.587121 1.111327,-0.699334 0.06894,-0.112213 0.01336,-0.134385 -0.123559,-0.04926 -0.136908,0.08511 -0.24892,0.102172 -0.24892,0.03795 0,-0.06426 0.381508,-0.312606 0.84778,-0.551884 0.46628,-0.239269 0.921502,-0.558432 1.011603,-0.709235 0.111695,-0.186942 0.03064,-0.175917 -0.254877,0.03467 -0.230275,0.169868 0.06641,-0.183032 0.659325,-0.784226 0.592903,-0.601187 1.190256,-1.276922 1.327449,-1.501634 0.137192,-0.224704 0.362701,-0.381745 0.501132,-0.348966 0.138431,0.03279 0.190241,-0.04041 0.115142,-0.162655 -0.07513,-0.122238 -0.04482,-0.222246 0.06723,-0.222246 0.11207,0 0.364893,-0.341572 0.561849,-0.759046 0.196939,-0.417474 0.456273,-0.759046 0.576288,-0.759046 0.120023,0 0.158257,-0.09759 0.08497,-0.216877 -0.07326,-0.119278 -0.02477,-0.216868 0.1078,-0.216868 0.13258,0 0.18109,-0.09759 0.1078,-0.216868 -0.07326,-0.119278 -0.02477,-0.216876 0.1078,-0.216876 0.13258,0 0.18109,-0.09759 0.107808,-0.216868 -0.07326,-0.119278 -0.01434,-0.216868 0.131008,-0.216868 0.145341,0 0.20345,-0.06115 0.129125,-0.135934 -0.186778,-0.187868 0.451506,-1.382167 0.738677,-1.382167 0.128228,0 0.177292,-0.146385 0.10903,-0.325302 -0.06829,-0.178918 -0.03781,-0.325311 0.06764,-0.325311 0.105445,0 0.247926,-0.292769 0.316636,-0.650612 0.06869,-0.357835 0.183991,-0.956374 0.256172,-1.330093 0.100246,-0.51904 0.181033,-0.608654 0.34211,-0.379524 0.156016,0.221934 0.183208,0.173032 0.104548,-0.187999 -0.05851,-0.268376 -0.0073,-0.487957 0.114238,-0.487957 0.121302,0 0.174179,-0.243983 0.117513,-0.542179 -0.05671,-0.298195 -0.0065,-0.542178 0.110872,-0.542178 0.123853,0 0.162625,-0.317909 0.0921,-0.755071 -0.06698,-0.415294 -0.03121,-0.811423 0.07961,-0.880284 0.234179,-0.145581 0.277294,-5.589627 0.04612,-5.822175 -0.08542,-0.08592 -0.126493,-0.492548 -0.09128,-0.903628 0.0352,-0.411081 -0.02697,-0.747415 -0.138203,-0.747415 -0.11123,0 -0.153107,-0.258483 -0.09307,-0.574408 0.07285,-0.383466 0.03048,-0.525474 -0.127634,-0.427195 -0.204419,0.127073 -0.61642,-0.91739 -0.778711,-1.974091 -0.02233,-0.145647 -0.101477,-0.325975 -0.175793,-0.400729 -0.07432,-0.07475 -0.08291,-0.272761 -0.01907,-0.440023 0.0638,-0.167253 0.0033,-0.304097 -0.135384,-0.304097 -0.138268,0 -0.19143,-0.09759 -0.118141,-0.216876 0.07326,-0.119278 0.03357,-0.216868 -0.08832,-0.216868 -0.121856,0 -0.159601,-0.162393 -0.08388,-0.360884 0.08982,-0.235425 0.05362,-0.308638 -0.104052,-0.210606 -0.151787,0.09436 -0.33854,-0.174802 -0.501971,-0.723473 -0.143141,-0.480563 -0.347643,-0.873742 -0.454448,-0.873742 -0.106814,0 -0.143076,-0.08322 -0.08059,-0.184926 0.0625,-0.101704 -0.03602,-0.37008 -0.218867,-0.596391 -0.182866,-0.226311 -0.269585,-0.265089 -0.192702,-0.08617 0.07684,0.178926 -0.01296,0.135868 -0.19962,-0.09566 -0.186664,-0.23154 -0.339388,-0.551965 -0.339388,-0.712063 0,-0.160097 -0.362676,-0.6538 -0.805944,-1.097118 -0.443268,-0.443319 -0.798701,-0.854833 -0.789843,-0.914473 0.0089,-0.05967 -0.453153,-0.567817 -1.026679,-1.129282 -0.573525,-0.561474 -1.04278,-0.958505 -1.04278,-0.882309 0,0.07623 -0.315316,-0.212228 -0.700711,-0.640956 -0.385388,-0.42872 -1.071521,-0.932358 -1.524731,-1.119201 -0.453218,-0.186836 -0.770335,-0.427089 -0.704721,-0.533883 0.119632,-0.194705 -1.837048,-1.116136 -2.370139,-1.116136 -0.156163,0 -0.382829,-0.170786 -0.5037,-0.379523 -0.120862,-0.208737 -0.224196,-0.281933 -0.229615,-0.162655 -0.0057,0.119278 -0.08828,0.09257 -0.184146,-0.05934 -0.09585,-0.151926 -0.734399,-0.367925 -1.418976,-0.479998 -1.684821,-0.275827 -2.09749,-0.425704 -1.928664,-0.700481 0.09357,-0.152287 -0.05435,-0.194754 -0.428071,-0.122893 -0.314077,0.06041 -0.571048,0.01828 -0.571048,-0.09361 0,-0.111885 -0.334376,-0.174442 -0.743045,-0.139024 -0.408676,0.03541 -0.812928,-0.0057 -0.898343,-0.09182 -0.08542,-0.08592 -0.721255,-0.156213 -1.412987,-0.156213 H 46.398957 V 11.761747 0.15915851 l 0.808512,-2.705e-4 c 0.860419,-2.9508e-4 3.016433,0.24729419 6.800578,0.78097257 4.089699,0.57676842 9.271176,2.30262282 13.63033,4.54001632 10.425765,5.3511611 18.80352,15.2244441 22.527225,26.5485921 2.001384,6.086412 2.79711,12.856273 2.16308,18.403056 -0.729795,6.384624 -3.631763,14.610963 -7.894656,22.379353 -0.556356,1.013873 -1.171221,2.136181 -1.366351,2.494015 -0.195138,0.357835 -0.768762,1.333758 -1.274718,2.168706 -0.505956,0.834956 -1.03618,1.710403 -1.178262,1.945443 -0.530125,0.876956 -3.566719,5.49162 -4.764375,7.240343 -1.104719,1.613035 -1.714621,2.450401 -4.208687,5.778299 -1.220903,1.6291 -3.668815,4.768843 -5.127597,6.576771 -0.8013,0.993085 -1.723984,2.261785 -2.050415,2.819325 -0.326431,0.55753 -0.595161,0.92155 -0.597182,0.80892 -0.0016,-0.11264 -0.241994,0.13135 -0.533263,0.54217 -0.291277,0.41083 -0.761338,0.99094 -1.044573,1.28915 -0.283234,0.29819 -1.189099,1.3229 -2.013028,2.27714 -1.58495,1.8356 -3.211304,3.65146 -4.282303,4.78129 -1.052518,1.11033 -1.625229,1.83326 -1.452312,1.83326 0.08902,0 0.597735,-0.49213 1.130485,-1.09362 0.532749,-0.60149 1.550757,-1.71943 2.26225,-2.48431 0.711484,-0.76488 1.63319,-1.79513 2.048223,-2.28945 0.415032,-0.49432 0.950227,-1.10864 1.189303,-1.36515 0.707989,-0.75958 3.000886,-3.45413 3.494155,-4.10623 0.251145,-0.33201 0.512972,-0.51196 0.581829,-0.39988 0.06886,0.11207 0.319155,0.15276 0.556194,0.0904 0.258861,-0.0681 0.430996,-0.007 0.430996,0.15407 0,0.16834 0.19975,0.22904 0.538999,0.1638 0.29646,-0.057 0.539008,-0.008 0.539008,0.10844 0,0.11664 0.239174,0.1661 0.531487,0.10988 0.29232,-0.0562 0.559265,-0.0184 0.593229,0.0841 0.03398,0.10247 0.473435,0.21027 0.976612,0.23956 0.503178,0.0293 0.915383,0.11507 0.915994,0.19062 8.15e-4,0.13314 0.749327,0.44184 1.186932,0.48968 0.118581,0.013 0.352189,0.15399 0.519133,0.3134 0.166943,0.1594 0.530769,0.24613 0.808512,0.19273 0.277734,-0.0534 0.504978,-0.013 0.504978,0.0897 0,0.10274 0.280684,0.18679 0.623739,0.18679 0.366783,0 0.677023,0.13967 0.753083,0.33905 0.07114,0.18648 0.227057,0.27831 0.346477,0.20407 0.119412,-0.0743 0.217124,-0.0473 0.217124,0.0599 0,0.26791 0.988583,0.69822 1.604091,0.69822 0.278191,0 0.559958,0.14197 0.626159,0.31551 0.113903,0.29856 1.866196,1.33366 1.866196,1.10239 0,-0.0599 0.347903,0.23083 0.773121,0.64621 0.425211,0.41536 0.916043,0.75521 1.090736,0.75521 0.174685,0 0.257656,0.0976 0.184366,0.21687 -0.07326,0.11928 0.02371,0.21687 0.2156,0.21687 0.19187,0 0.288898,0.0976 0.215608,0.21687 -0.07326,0.11928 -0.03048,0.22907 0.09507,0.24398 0.125581,0.0149 0.349606,0.0393 0.497832,0.0542 0.148226,0.0149 0.298986,0.235 0.33502,0.48909 0.03602,0.25409 0.35135,0.78402 0.700704,1.17763 0.349361,0.39361 0.635195,0.7988 0.635195,0.90043 0,0.10162 0.159553,0.54761 0.354553,0.99108 0.195,0.44346 0.333586,1.02588 0.307974,1.29426 -0.04938,0.51724 0.304723,0.6745 0.488306,0.21686 0.05981,-0.14909 0.109585,0.65604 0.110611,1.78919 8.15e-4,1.28216 -0.06511,1.89646 -0.175442,1.62653 -0.159504,-0.3902 -0.192368,-0.39669 -0.327352,-0.0646 -0.08253,0.20303 -0.07798,0.48648 0.01019,0.62991 0.101541,0.16526 0.0691,0.20409 -0.0887,0.10601 -0.228426,-0.142 -0.338002,0.25586 -0.307224,1.11553 0.0049,0.14782 -0.07644,0.21526 -0.181636,0.14986 -0.105192,-0.0654 -0.191259,0.0865 -0.191259,0.3375 0,0.25102 -0.218297,0.67704 -0.485104,0.9467 -0.266815,0.26968 -0.720464,0.83747 -1.008107,1.26176 -0.28766,0.42429 -0.942551,1.02635 -1.45532,1.3379 -0.512777,0.31155 -0.932315,0.69447 -0.932315,0.85094 0,0.15647 -0.206637,0.30015 -0.459191,0.31928 -0.252554,0.0191 -0.664898,0.21916 -0.916312,0.44448 -0.621505,0.55699 -3.909505,2.14412 -5.038678,2.43218 -0.503968,0.12857 -0.916303,0.33804 -0.916303,0.46548 0,0.12744 -0.156334,0.17137 -0.347415,0.0976 -0.248586,-0.096 -0.311844,-0.0409 -0.222371,0.19366 0.08775,0.23002 -0.0176,0.33158 -0.353298,0.34057 -1.396721,0.0374 -2.19072,0.16654 -2.257206,0.36718 -0.04091,0.12352 -0.263816,0.17477 -0.495297,0.11388 -0.231474,-0.0609 -0.420867,-0.0109 -0.420867,0.11116 0,0.12202 -0.210401,0.16651 -0.467568,0.0989 -0.370899,-0.0976 -0.439161,-0.0485 -0.330171,0.23717 0.141446,0.37077 -0.339795,0.46653 -1.843388,0.3668 -0.326105,-0.0216 -0.592912,0.0487 -0.592912,0.15633 0,0.10761 -0.291065,0.15268 -0.646807,0.10017 -0.355743,-0.0525 -0.646808,-0.004 -0.646808,0.10843 0,0.11216 -0.291066,0.16096 -0.646808,0.10844 -0.355742,-0.0525 -0.646807,-0.0103 -0.646807,0.0939 0,0.10415 -0.315317,0.18842 -0.700704,0.18727 -0.433001,-0.002 -0.681252,0.098 -0.649782,0.26003 0.02966,0.15259 -0.195562,0.26431 -0.539008,0.26735 -0.324459,0.002 -1.196319,0.004 -1.937448,0.003 -0.741138,-8.2e-4 -1.34752,0.0784 -1.34752,0.17667 0,0.0982 -0.643866,0.13741 -1.430816,0.087 -1.024323,-0.0656 -1.38823,-0.0223 -1.280895,0.15237 0.08246,0.13421 0.04718,0.24402 -0.07839,0.24402 -0.12558,0 -0.228328,-0.10335 -0.228328,-0.22967 0,-0.12632 -0.08027,-0.17976 -0.178409,-0.11876 -0.09813,0.061 -1.212698,0.13493 -2.476823,0.16427 -1.264125,0.0293 -2.17831,0.13009 -2.031518,0.22388 0.150752,0.0963 -0.202212,0.17421 -0.811111,0.179 -0.592912,0.005 -1.426318,0.09 -1.852009,0.18952 l -0.774002,0.18104 z m 7.009187,-9.37872 c 1.060666,-1.1501 0.659218,-1.02958 -0.467829,0.14045 -0.592903,0.61552 -1.078007,1.20993 -1.078007,1.32091 0,0.111 -0.09703,0.14148 -0.215608,0.0678 -0.118581,-0.0737 -0.2156,-0.047 -0.2156,0.0593 0,0.18928 -1.452492,1.71122 -3.643358,3.81753 -0.604948,0.5816 -1.098991,1.16715 -1.097883,1.30122 0.0016,0.20045 4.367661,-4.15829 6.718285,-6.70711 z m 9.692996,-52.959668 c 0.268184,-0.343966 0.260557,-0.351638 -0.08141,-0.08188 -0.207516,0.163705 -0.377304,0.334491 -0.377304,0.379523 0,0.178492 0.177057,0.06361 0.45871,-0.297646 z m 5.07864,-21.781962 c -0.06886,-0.172999 -0.119917,-0.121614 -0.130258,0.131033 -0.0094,0.228614 0.04156,0.356703 0.113236,0.284638 0.07163,-0.07205 0.07929,-0.259114 0.01703,-0.415671 z"
       id="path5677" />
    <path
       style="fill:#cccccc;fill-opacity:1;stroke-width:0.216235"
       d="m 48.069762,68.754155 c 0.266807,-0.05172 0.703401,-0.05172 0.970216,0 0.266806,0.05172 0.04848,0.09398 -0.485112,0.09398 -0.533614,0 -0.751911,-0.0423 -0.485104,-0.09398 z m 2.26793,-0.214114 c 0.209773,-0.055 0.500839,-0.05139 0.646807,0.0082 0.145969,0.05943 -0.02567,0.104393 -0.381402,0.09998 -0.355751,-0.0041 -0.475179,-0.05303 -0.265405,-0.108008 z M 51.5194,68.329837 c 0.148234,-0.06016 0.390782,-0.06016 0.539008,0 0.148226,0.06016 0.02697,0.109385 -0.269504,0.109385 -0.296452,0 -0.41773,-0.04926 -0.269504,-0.109385 z m 1.091494,-0.221393 c 0.155633,-0.06262 0.341596,-0.05492 0.413239,0.01713 0.07163,0.07205 -0.05574,0.123319 -0.282981,0.113901 -0.25117,-0.01041 -0.302254,-0.0618 -0.130258,-0.131024 z m 7.15531,-3.631831 c 0,-0.05967 0.194038,-0.212893 0.4312,-0.340564 0.237169,-0.127672 0.431207,-0.183336 0.431207,-0.123697 0,0.05967 -0.194038,0.212893 -0.431207,0.340565 -0.237162,0.127672 -0.4312,0.183335 -0.4312,0.123696 z m 1.293615,-1.067045 c 0,-0.05008 0.254494,-0.258852 0.565549,-0.463867 0.311054,-0.205008 0.49969,-0.265549 0.419196,-0.134541 -0.153824,0.250352 -0.984745,0.755292 -0.984745,0.598408 z m 1.724815,-1.524109 c 0,-0.045 0.169788,-0.215819 0.377304,-0.379524 0.341963,-0.269761 0.34959,-0.262089 0.08141,0.08188 -0.281653,0.361253 -0.45871,0.476138 -0.45871,0.297647 z m 5.407092,-9.586941 c 0.01035,-0.252647 0.06144,-0.304032 0.130258,-0.131032 0.06226,0.156557 0.0546,0.343605 -0.01703,0.41567 -0.07163,0.07205 -0.122598,-0.05607 -0.113235,-0.284638 z m 0.232623,-0.957849 c 0,-0.298196 0.04889,-0.420187 0.108745,-0.271089 0.05981,0.149098 0.05981,0.39308 0,0.542178 -0.05981,0.149098 -0.108745,0.02713 -0.108745,-0.271089 z m 0.223586,-1.192791 c 0.0041,-0.357834 0.05272,-0.477965 0.107384,-0.266958 0.05468,0.211008 0.05109,0.503785 -0.0081,0.650613 -0.05908,0.146827 -0.103782,-0.02582 -0.09939,-0.383655 z m 0.25803,-4.012108 c 0,-1.610265 0.03398,-2.269008 0.07546,-1.46388 0.04148,0.805136 0.04148,2.122623 0,2.92776 -0.04148,0.805128 -0.07546,0.146385 -0.07546,-1.46388 z m -0.250036,-3.903674 c 0,-0.417474 0.04441,-0.588261 0.0986,-0.379524 0.05419,0.208737 0.05419,0.55031 0,0.759047 -0.05427,0.208737 -0.0986,0.03795 -0.0986,-0.379523 z m -0.23158,-1.301225 c 0,-0.298196 0.04889,-0.420187 0.108745,-0.271089 0.05981,0.149098 0.05981,0.39308 0,0.542178 -0.05981,0.149098 -0.108745,0.02713 -0.108745,-0.271089 z m -0.232623,-0.993988 c 0.01035,-0.252647 0.06144,-0.304032 0.130258,-0.131033 0.06226,0.156557 0.0546,0.343606 -0.01703,0.415671 -0.07163,0.07205 -0.122598,-0.05598 -0.113235,-0.284638 z M 65.587473,34.207879 C 65.460548,33.969322 65.40521,33.774135 65.4645,33.774135 c 0.05932,0 0.211648,0.195187 0.338573,0.433744 0.126925,0.238556 0.182263,0.433736 0.122973,0.433736 -0.05932,0 -0.211648,-0.19518 -0.338573,-0.433736 z m -1.078016,-1.518101 c -0.126925,-0.238557 -0.182263,-0.433736 -0.122972,-0.433736 0.05932,0 0.211647,0.195179 0.338572,0.433736 0.126925,0.238565 0.182264,0.433744 0.122973,0.433744 -0.05932,0 -0.211647,-0.195179 -0.338573,-0.433744 z m -4.863749,-4.891556 c -0.401888,-0.323868 -0.399248,-0.327876 0.06658,-0.100803 0.266806,0.130057 0.485103,0.281827 0.485103,0.337269 0,0.165959 -0.111809,0.118033 -0.551695,-0.236466 z m -2.035535,-1.289258 c -0.296452,-0.170466 -0.44198,-0.309933 -0.3234,-0.309933 0.118581,0 0.458156,0.139467 0.754608,0.309933 0.296452,0.170467 0.441988,0.309934 0.323408,0.309934 -0.118589,0 -0.458156,-0.139467 -0.754616,-0.309934 z m -3.557438,-1.626535 c -0.271802,-0.117483 -0.311649,-0.186384 -0.1078,-0.186384 0.177871,0 0.517446,0.08388 0.754608,0.186384 0.271793,0.117483 0.311649,0.186393 0.107799,0.186393 -0.177871,0 -0.517446,-0.08388 -0.754607,-0.186393 z M 51.0882,23.871318 c 0.148226,-0.06016 0.390774,-0.06016 0.539008,0 0.148226,0.06016 0.02697,0.109393 -0.269504,0.109393 -0.29646,0 -0.417729,-0.04926 -0.269504,-0.109393 z m -1.401415,-0.222737 c 0.207516,-0.05451 0.547091,-0.05451 0.754608,0 0.207516,0.05459 0.03773,0.09918 -0.377304,0.09918 -0.415041,0 -0.584828,-0.04459 -0.377304,-0.09918 z M 46.991746,23.42432 c 0.385396,-0.04812 1.016028,-0.04812 1.401424,0 0.385387,0.04811 0.07008,0.08747 -0.700712,0.08747 -0.770783,0 -1.086099,-0.03934 -0.700712,-0.08747 z"
       id="path5675" />
  </g>
</svg>
